<svg width="44" height="35" viewBox="0 0 44 35" fill="none" xmlns="http://www.w3.org/2000/svg">
<path d="M1.43841 0.250001H1.43863H41.6794C41.8354 0.250016 41.9899 0.280775 42.134 0.340518C42.2781 0.400264 42.409 0.48781 42.5193 0.598167C42.6295 0.708527 42.717 0.839546 42.7766 0.983721C42.8362 1.12789 42.8668 1.28243 42.8667 1.43843V1.43865V33.0547C42.8666 33.3695 42.7415 33.6715 42.5189 33.8942C42.2962 34.1168 41.9943 34.2419 41.6794 34.2419H1.43863H1.43841C1.28244 34.2421 1.12794 34.2114 0.983734 34.1518C0.839527 34.0922 0.708525 34.0048 0.598188 33.8946C0.487846 33.7844 0.400278 33.6534 0.340521 33.5092C0.280776 33.3651 0.250018 33.2107 0.250001 33.0547L0.250001 1.43865L0.25 1.43844C0.249865 1.28233 0.280514 1.12768 0.340186 0.983446C0.399861 0.8392 0.487394 0.708135 0.597774 0.597756C0.708153 0.487377 0.839216 0.399848 0.983463 0.340173C1.1277 0.280503 1.2823 0.249864 1.43841 0.250001ZM2.87585 2.6259H2.62585V2.8759V23.8349V24.4385L3.05264 24.0116L9.22113 17.8417C9.22115 17.8417 9.22117 17.8417 9.22119 17.8417C9.44383 17.6192 9.74573 17.4942 10.0606 17.4942C10.3753 17.4942 10.6772 17.6191 10.8998 17.8416C10.8998 17.8416 10.8999 17.8416 10.8999 17.8416C10.8999 17.8417 10.8999 17.8417 10.9 17.8417L15.6312 22.5785L15.8079 22.7555L15.9848 22.5786L26.4678 12.097L26.4684 12.0964C26.6834 11.88 26.9734 11.7546 27.2783 11.7463C27.558 11.7402 27.8308 11.833 28.0487 12.0083L28.0493 12.0088L40.086 21.6385L40.4922 21.9634V21.4433V2.8759V2.6259H40.2422H2.87585ZM1.43863 34.4919H41.6794C42.0606 34.4919 42.4261 34.3405 42.6957 34.071C42.9652 33.8014 43.1166 33.4358 43.1167 33.0547V1.43865C43.1168 1.2498 43.0798 1.06273 43.0076 0.888207C42.9355 0.713683 42.8296 0.555078 42.6962 0.421476C42.5627 0.287874 42.4042 0.181897 42.2297 0.109576C42.0553 0.0372549 41.8683 1.92586e-05 41.6794 0L1.43863 34.4919ZM27.5715 14.664L27.3967 14.5242L27.2385 14.6824L16.6503 25.2707C16.6503 25.2707 16.6502 25.2707 16.6502 25.2707C16.4276 25.4933 16.1256 25.6183 15.8108 25.6183C15.496 25.6183 15.1941 25.4933 14.9714 25.2707L14.9714 25.2706L10.2344 20.5379L10.0577 20.3613L9.88097 20.538L2.69907 27.7199L2.62585 27.7931V27.8967V31.616V31.866H2.87585H40.2422H40.4922V31.616V25.1205V25.0004L40.3984 24.9253L27.5715 14.664ZM6.00029 10.0577C6.00029 7.83156 7.83157 6.0003 10.0577 6.0003C12.2843 6.0003 14.1208 7.83198 14.1208 10.0577C14.1208 12.2839 12.2839 14.1209 10.0577 14.1209C7.832 14.1209 6.00029 12.2843 6.00029 10.0577ZM11.745 10.0577C11.745 9.10758 11.0053 8.37611 10.0577 8.37611C9.1089 8.37611 8.37614 9.10886 8.37614 10.0577C8.37614 11.005 9.10729 11.7464 10.0577 11.7464C11.0069 11.7464 11.745 11.0062 11.745 10.0577Z" stroke="#2B4403" stroke-width="0.5"/>
</svg>
