<svg width="45" height="59" viewBox="0 0 45 59" fill="none" xmlns="http://www.w3.org/2000/svg">
<g clip-path="url(#clip0)">
<path d="M4.47971e-06 36.8584V54.7074C-0.000794928 55.2443 0.105404 55.776 0.312539 56.2723C0.519673 56.7686 0.823686 57.2197 1.20722 57.5999C1.59075 57.98 2.0463 58.2818 2.54784 58.488C3.04939 58.6942 3.58711 58.8007 4.1303 58.8015H40.202C40.7452 58.8007 41.2829 58.6942 41.7845 58.488C42.286 58.2818 42.7415 57.98 43.1251 57.5999C43.5086 57.2197 43.8126 56.7686 44.0198 56.2723C44.2269 55.776 44.3331 55.2443 44.3323 54.7074V36.8584H4.47971e-06Z" fill="#88D20F"/>
<path d="M0.304199 36.5578V4.09399C0.304194 3.08998 0.706917 2.12692 1.42411 1.41586C2.14131 0.70479 3.11448 0.303719 4.13035 0.300537H40.202C41.2179 0.303719 42.1911 0.70479 42.9083 1.41586C43.6255 2.12692 44.0282 3.08998 44.0282 4.09399V36.5578H0.304199Z" fill="white"/>
<path d="M40.202 0.601181C41.1372 0.604362 42.033 0.973763 42.6932 1.62846C43.3533 2.28315 43.724 3.16976 43.724 4.09404V36.2572H0.608296V4.09404C0.60829 3.16976 0.978969 2.28315 1.63913 1.62846C2.29928 0.973763 3.19509 0.604362 4.1303 0.601181H40.202ZM40.202 0H4.1303C3.58711 0.000788902 3.04939 0.10731 2.54784 0.313482C2.0463 0.519654 1.59075 0.821439 1.20722 1.20161C0.823686 1.58177 0.519673 2.03288 0.312539 2.52916C0.105404 3.02545 -0.000794928 3.55719 4.47971e-06 4.09404V36.8584H44.3323V4.09404C44.3331 3.55719 44.2269 3.02545 44.0198 2.52916C43.8126 2.03288 43.5086 1.58177 43.1251 1.20161C42.7415 0.821439 42.286 0.519654 41.7845 0.313482C41.2829 0.10731 40.7452 0.000788902 40.202 0V0Z" fill="#88D20F"/>
<path d="M24.788 17.4342H25.2016C25.4248 17.4389 25.637 17.5307 25.792 17.6895C25.947 17.8483 26.0321 18.0612 26.0289 18.2818V21.6424C26.0321 21.863 25.947 22.076 25.792 22.2348C25.637 22.3936 25.4248 22.4854 25.2016 22.4901H19.1187C18.8976 22.4823 18.6885 22.3891 18.5361 22.2306C18.3837 22.0722 18.3002 21.861 18.3036 21.6424V18.2638C18.3051 18.0463 18.3924 17.838 18.5468 17.6831C18.7013 17.5281 18.9108 17.4389 19.1308 17.4342H19.5445V16.1416C19.5445 15.4544 19.8207 14.7954 20.3124 14.3094C20.804 13.8235 21.4709 13.5505 22.1662 13.5505C22.8615 13.5505 23.5284 13.8235 24.0201 14.3094C24.5117 14.7954 24.788 15.4544 24.788 16.1416V17.4342ZM20.9253 16.1416V17.4342H23.4071V16.1416C23.4071 15.8164 23.2764 15.5044 23.0437 15.2744C22.811 15.0444 22.4953 14.9152 22.1662 14.9152C21.8371 14.9152 21.5215 15.0444 21.2888 15.2744C21.056 15.5044 20.9253 15.8164 20.9253 16.1416Z" fill="#88D20F"/>
<path d="M22.1661 4.8396L22.6041 6.24636H24.0214L22.8778 7.11206L23.3158 8.51883L22.1661 7.65313L21.0225 8.51883L21.4605 7.11206L20.3108 6.24636H21.7281L22.1661 4.8396Z" fill="#F8D12E"/>
<path d="M22.1661 27.967L22.6041 29.3738H24.0214L22.8778 30.2395L23.3158 31.6463L22.1661 30.7806L21.0225 31.6463L21.4605 30.2395L20.3108 29.3738H21.7281L22.1661 27.967Z" fill="#F8D12E"/>
<path d="M27.9814 6.9436L28.4193 8.35037H29.8367L28.7113 9.21607L29.1493 10.6228L27.9814 9.75112L26.8378 10.6228L27.2757 9.21607L26.1565 8.35037H27.5738L27.9814 6.9436Z" fill="#F8D12E"/>
<path d="M32.7198 22.0754L33.1578 23.4822H34.5751L33.4558 24.3479L33.8938 25.7547L32.7502 24.883L31.5701 25.7547L32.0081 24.3479L30.8645 23.4822H32.2818L32.7198 22.0754Z" fill="#F8D12E"/>
<path d="M33.8333 16.4062L34.2713 17.807H35.6947L34.545 18.6787L34.983 20.0855L33.8333 19.2378L32.6897 20.1095L33.1277 18.7028L31.978 17.831H33.3953L33.8333 16.4062Z" fill="#F8D12E"/>
<path d="M10.4991 16.4062L10.9492 17.807H12.3665L11.2169 18.6787L11.6548 20.0855L10.4991 19.2378L9.34942 20.1095L9.78739 18.7028L8.6438 17.831H10.0611L10.4991 16.4062Z" fill="#F8D12E"/>
<path d="M11.4662 22.0754L11.9042 23.4822H13.3215L12.1657 24.3479L12.6037 25.7547L11.4601 24.883L10.3409 25.7547L10.7788 24.3479L9.62915 23.4822H11.0526L11.4662 22.0754Z" fill="#F8D12E"/>
<path d="M32.7198 10.5869L33.1578 11.9877H34.5751L33.4558 12.8594L33.8938 14.2661L32.7502 13.3944L31.5701 14.2661L32.0081 12.8594L30.8645 11.9877H32.2818L32.7198 10.5869Z" fill="#F8D12E"/>
<path d="M11.9468 10.5869L12.3848 11.9877H13.8021L12.6585 12.8594L13.0965 14.2661L11.9468 13.3944L10.7972 14.2661L11.2351 12.8594L10.0916 11.9877H11.5089L11.9468 10.5869Z" fill="#F8D12E"/>
<path d="M29.064 26.9148L29.502 28.3216H30.9193L29.7696 29.1933L30.2076 30.594L29.064 29.7283L27.9143 30.594L28.3523 29.1933L27.2026 28.3216H28.626L29.064 26.9148Z" fill="#F8D12E"/>
<path d="M16.3326 6.9436L16.7706 8.35037H18.1879L17.0321 9.21607L17.4762 10.6228L16.3265 9.75112L15.2072 10.6228L15.6452 9.21607L14.4773 8.35037H15.8946L16.3326 6.9436Z" fill="#F8D12E"/>
<path d="M15.2684 26.9148L15.7124 28.3216H17.1298L15.9801 29.1933L16.4241 30.594L15.2684 29.7283L14.1248 30.594L14.5628 29.1933L13.4131 28.3216H14.8304L15.2684 26.9148Z" fill="#F8D12E"/>
<path d="M17.6404 43.5135V45.0886L17.5613 45.1728C17.4894 45.2446 17.4121 45.3109 17.3301 45.3712C17.2137 45.4636 17.0896 45.546 16.9591 45.6176C16.7954 45.7025 16.6217 45.7671 16.442 45.81C16.2284 45.8703 16.0073 45.9006 15.7851 45.9002C15.4817 45.907 15.18 45.8535 14.8979 45.743C14.6158 45.6326 14.359 45.4673 14.1427 45.2569C13.9291 45.0575 13.759 44.817 13.6428 44.5503C13.5265 44.2836 13.4666 43.9963 13.4666 43.7059C13.4666 43.4155 13.5265 43.1282 13.6428 42.8615C13.759 42.5948 13.9291 42.3543 14.1427 42.1549C14.36 41.9354 14.6206 41.7624 14.9084 41.6466C15.1961 41.5308 15.5049 41.4746 15.8155 41.4815C16.0317 41.4803 16.247 41.5106 16.4542 41.5717C16.629 41.6175 16.7967 41.6862 16.953 41.7761C17.0807 41.8603 17.1963 41.9444 17.2936 42.0226C17.3738 42.0851 17.4472 42.1556 17.5126 42.233L17.5795 42.3232L16.9712 42.8943L16.9226 42.8282C16.8798 42.7766 16.833 42.7284 16.7827 42.6839C16.7121 42.6136 16.6323 42.5529 16.5454 42.5035C16.3217 42.3814 16.0711 42.3153 15.8155 42.3112C15.4428 42.3112 15.0854 42.4575 14.8219 42.7179C14.5584 42.9783 14.4103 43.3316 14.4103 43.6999C14.4103 44.0682 14.5584 44.4214 14.8219 44.6819C15.0854 44.9423 15.4428 45.0886 15.8155 45.0886C15.9915 45.0901 16.1664 45.0616 16.3325 45.0044C16.4517 44.9691 16.5631 44.912 16.661 44.8361L16.7583 44.758V44.1568H15.9676V43.4955L17.6404 43.5135Z" fill="white"/>
<path d="M20.2195 41.5896C20.5075 41.5816 20.7941 41.6308 21.0626 41.734C21.3311 41.8372 21.576 41.9925 21.7828 42.1907C21.9828 42.3856 22.1401 42.6191 22.2447 42.8766C22.3494 43.1342 22.3992 43.4103 22.3911 43.6877C22.3998 43.9643 22.3503 44.2397 22.2455 44.4964C22.1408 44.753 21.9832 44.9854 21.7828 45.1786C21.5766 45.3777 21.3318 45.5335 21.0632 45.6368C20.7946 45.7401 20.5076 45.7887 20.2195 45.7798H18.6379V41.5715L20.2195 41.5896ZM19.5504 42.4012V44.9862H20.2195C20.3885 44.9897 20.5564 44.9584 20.7124 44.8942C20.8685 44.8301 21.0093 44.7345 21.1259 44.6135C21.2472 44.4928 21.3427 44.3491 21.4064 44.1911C21.4702 44.033 21.501 43.8638 21.4969 43.6937C21.5004 43.5242 21.47 43.3556 21.4073 43.1978C21.3447 43.0399 21.2511 42.8959 21.1319 42.7739C21.0147 42.6522 20.8729 42.5561 20.7157 42.4919C20.5585 42.4277 20.3895 42.3968 20.2195 42.4012H19.5504Z" fill="white"/>
<path d="M25.0554 41.5897C25.458 41.5762 25.8496 41.721 26.1443 41.9925C26.281 42.1232 26.3897 42.2796 26.4639 42.4526C26.5381 42.6256 26.5764 42.8116 26.5764 42.9995C26.5764 43.1874 26.5381 43.3734 26.4639 43.5464C26.3897 43.7194 26.281 43.8759 26.1443 44.0065C25.9991 44.1423 25.8281 44.2483 25.6412 44.3185C25.4543 44.3886 25.2553 44.4215 25.0554 44.4153H24.1734V45.798H23.261V41.5897H25.0554ZM24.1734 42.4013V43.6037H25.025C25.1089 43.6057 25.1924 43.5913 25.2707 43.5614C25.349 43.5315 25.4205 43.4866 25.4813 43.4293C25.5383 43.3735 25.5835 43.307 25.6144 43.2337C25.6453 43.1605 25.6612 43.0819 25.6612 43.0025C25.6612 42.9231 25.6453 42.8446 25.6144 42.7713C25.5835 42.6981 25.5383 42.6316 25.4813 42.5757C25.4205 42.5184 25.349 42.4735 25.2707 42.4436C25.1924 42.4137 25.1089 42.3993 25.025 42.4013H24.1734Z" fill="white"/>
<path d="M27.373 41.5897H29.2587C29.451 41.5842 29.6425 41.6164 29.8221 41.6845C30.0017 41.7526 30.1659 41.8552 30.305 41.9865C30.4386 42.1141 30.5442 42.2674 30.6154 42.437C30.6865 42.6066 30.7217 42.7889 30.7187 42.9724C30.7182 43.132 30.6914 43.2903 30.6396 43.4414C30.5945 43.568 30.531 43.6875 30.451 43.7961C30.3838 43.8812 30.3085 43.9598 30.2259 44.0305C30.1695 44.0829 30.106 44.1274 30.0374 44.1628L29.9583 44.2049L30.8707 45.798H29.8975L29.0763 44.3251H28.2855V45.798H27.373V41.5897ZM29.642 42.5636C29.5877 42.5104 29.5231 42.4685 29.452 42.4406C29.3809 42.4127 29.3048 42.3993 29.2283 42.4013H28.3098V43.5135H29.2527C29.4055 43.5146 29.5532 43.4588 29.6663 43.3572C29.7196 43.3081 29.7617 43.2485 29.79 43.1822C29.8183 43.1159 29.8321 43.0444 29.8305 42.9724C29.8333 42.8968 29.8201 42.8214 29.7918 42.751C29.7636 42.6806 29.7208 42.6168 29.6663 42.5636H29.642Z" fill="white"/>
<path d="M4.86625 49.8979C5.14544 49.6229 5.49456 49.4275 5.87677 49.3323C6.25898 49.237 6.66011 49.2455 7.03785 49.3568C7.21181 49.4051 7.37778 49.478 7.53056 49.5733C7.64948 49.6501 7.76326 49.7345 7.87121 49.8258C7.94901 49.8932 8.02028 49.9677 8.08411 50.0482L8.15102 50.1384L7.84687 50.4089L7.79213 50.3308C7.79213 50.3308 7.71305 50.2406 7.62789 50.1564C7.5379 50.0777 7.44236 50.0053 7.34199 49.94C7.21462 49.8683 7.08007 49.8099 6.94052 49.7656C6.77154 49.7119 6.59489 49.6855 6.41739 49.6875C6.19109 49.6857 5.96674 49.7289 5.75772 49.8146C5.5487 49.9004 5.35929 50.0268 5.20081 50.1865C5.03713 50.35 4.90858 50.5445 4.82287 50.7584C4.73715 50.9722 4.69604 51.201 4.70201 51.4309C4.69546 51.66 4.73632 51.8881 4.82209 52.101C4.90786 52.314 5.03673 52.5074 5.20081 52.6694C5.35813 52.8309 5.54718 52.9591 5.75638 53.0459C5.96557 53.1327 6.1905 53.1764 6.41739 53.1743C6.59438 53.1755 6.77061 53.1512 6.94052 53.1022C7.086 53.0581 7.22505 52.9954 7.35416 52.9158C7.457 52.8535 7.55464 52.7831 7.64614 52.7054C7.71275 52.6533 7.77207 52.5926 7.82254 52.5251L7.87729 52.4529L8.18143 52.7235L8.10844 52.8196C8.03913 52.8915 7.96603 52.9598 7.88945 53.024C7.78136 53.124 7.66313 53.2126 7.53665 53.2886C7.38336 53.3815 7.21745 53.4523 7.04393 53.499C6.84747 53.5622 6.64223 53.5946 6.43564 53.5952C6.00148 53.5969 5.57655 53.4715 5.21452 53.2346C4.8525 52.9978 4.56964 52.6602 4.40168 52.2645C4.23373 51.8688 4.18822 51.4328 4.27091 51.0116C4.3536 50.5904 4.56077 50.2028 4.86625 49.8979Z" fill="white"/>
<path d="M12.4092 52.9519C11.9968 53.3565 11.4392 53.5835 10.8581 53.5835C10.277 53.5835 9.7194 53.3565 9.30693 52.9519C8.99959 52.6492 8.79016 52.2631 8.70522 51.8426C8.62027 51.4221 8.66365 50.9861 8.82984 50.59C8.99602 50.1938 9.27753 49.8554 9.63864 49.6177C9.99975 49.3799 10.4242 49.2536 10.8581 49.2546C11.2907 49.2564 11.7131 49.3845 12.0723 49.6227C12.4316 49.8609 12.7116 50.1987 12.8773 50.5936C13.043 50.9886 13.087 51.4231 13.0037 51.8427C12.9204 52.2622 12.7136 52.6481 12.4092 52.9519ZM9.62324 52.6573C9.78537 52.8177 9.97787 52.9448 10.1897 53.0316C10.4016 53.1184 10.6287 53.163 10.8581 53.163C11.0874 53.163 11.3145 53.1184 11.5264 53.0316C11.7383 52.9448 11.9308 52.8177 12.0929 52.6573C12.257 52.4953 12.3859 52.3019 12.4716 52.089C12.5574 51.876 12.5983 51.648 12.5917 51.4189C12.5977 51.189 12.5566 50.9602 12.4708 50.7464C12.3851 50.5325 12.2566 50.338 12.0929 50.1745C11.7632 49.855 11.3198 49.6761 10.8581 49.6761C10.3963 49.6761 9.95299 49.855 9.62324 50.1745C9.45957 50.338 9.33102 50.5325 9.24531 50.7464C9.15959 50.9602 9.11848 51.189 9.12444 51.4189C9.11789 51.648 9.15876 51.876 9.24453 52.089C9.3303 52.3019 9.45917 52.4953 9.62324 52.6573Z" fill="white"/>
<path d="M16.2109 52.3028L14.5077 50.0784V53.5051H14.0515V49.2969H14.4469L16.2109 51.5814L17.975 49.2969H18.3704V53.5051H17.9142V50.0784L16.2109 52.3028Z" fill="white"/>
<path d="M21.2903 49.2968C21.471 49.2913 21.6509 49.322 21.8192 49.3871C21.9876 49.4522 22.1408 49.5503 22.2697 49.6755C22.5186 49.9281 22.658 50.2668 22.658 50.6194C22.658 50.972 22.5186 51.3106 22.2697 51.5632C22.1404 51.6879 21.9871 51.7856 21.8188 51.8507C21.6506 51.9157 21.4709 51.9468 21.2903 51.942H20.1346V53.505H19.6479V49.2968H21.2903ZM20.1346 49.7176V51.5211H21.2903C21.5146 51.5215 21.7312 51.4401 21.8986 51.2927C22.0599 51.1116 22.1488 50.8786 22.1488 50.6374C22.1488 50.3962 22.0599 50.1632 21.8986 49.9821C21.7339 49.8281 21.517 49.7402 21.2903 49.7356L20.1346 49.7176Z" fill="white"/>
<path d="M23.6018 53.5051V49.2969H24.058V53.0843H26.2479V53.5051H23.6018Z" fill="white"/>
<path d="M27.002 49.2969H27.4582V53.5051H27.002V49.2969Z" fill="white"/>
<path d="M29.1981 52.3509L28.7115 53.5532H28.2249L29.9889 49.345H30.4147L32.1787 53.5532H31.6921L31.2055 52.3509H29.1981ZM30.2018 49.9462L29.3806 51.93H31.023L30.2018 49.9462Z" fill="white"/>
<path d="M36.4549 49.2969V53.5051H36.0655L33.456 50.1265V53.5051H32.9998V49.2969H33.3951L36.0108 52.6935V49.2969H36.4549Z" fill="white"/>
<path d="M40.3539 49.2969V49.7177H39.0095V53.5051H38.5594V49.7177H37.2151V49.2969H40.3539Z" fill="white"/>
</g>
<defs>
<clipPath id="clip0">
<rect width="44.3323" height="58.8255" fill="white"/>
</clipPath>
</defs>
</svg>
