<svg width="44" height="59" viewBox="0 0 44 59" fill="none" xmlns="http://www.w3.org/2000/svg">
<g clip-path="url(#clip0)">
<path d="M0.383305 36.8584V54.7074C0.382536 55.2443 0.484651 55.776 0.683819 56.2723C0.882987 56.7686 1.17531 57.2197 1.54409 57.5999C1.91287 57.98 2.35089 58.2818 2.83315 58.488C3.3154 58.6942 3.83244 58.8007 4.35475 58.8015H39.0391C39.5614 58.8007 40.0784 58.6942 40.5607 58.488C41.0429 58.2818 41.4809 57.98 41.8497 57.5999C42.2185 57.2197 42.5108 56.7686 42.71 56.2723C42.9092 55.776 43.0113 55.2443 43.0105 54.7074V36.8584H0.383305Z" fill="#88D20F"/>
<path d="M0.675781 36.5578V4.09399C0.675776 3.08998 1.06301 2.12692 1.75262 1.41586C2.44223 0.70479 3.37797 0.303719 4.35478 0.300537H39.0391C40.0159 0.303719 40.9516 0.70479 41.6412 1.41586C42.3309 2.12692 42.7181 3.08998 42.7181 4.09399V36.5578H0.675781Z" fill="white"/>
<path d="M39.0391 0.601181C39.9383 0.604362 40.7997 0.973763 41.4344 1.62846C42.0692 2.28315 42.4256 3.16976 42.4256 4.09404V36.2572H0.968201V4.09404C0.968196 3.16976 1.32462 2.28315 1.95938 1.62846C2.59415 0.973763 3.45551 0.604362 4.35475 0.601181H39.0391ZM39.0391 0H4.35475C3.83244 0.000788902 3.3154 0.10731 2.83315 0.313482C2.35089 0.519654 1.91287 0.821439 1.54409 1.20161C1.17531 1.58177 0.882987 2.03288 0.683819 2.52916C0.484651 3.02545 0.382536 3.55719 0.383305 4.09404V36.8584H43.0105V4.09404C43.0113 3.55719 42.9092 3.02545 42.71 2.52916C42.5108 2.03288 42.2185 1.58177 41.8497 1.20161C41.4809 0.821439 41.0429 0.519654 40.5607 0.313482C40.0784 0.10731 39.5614 0.000788902 39.0391 0V0Z" fill="#88D20F"/>
<path d="M7.86979 42.1428C8.07693 41.9301 8.32332 41.762 8.5945 41.6485C8.86569 41.5349 9.1562 41.4781 9.44901 41.4815C9.74072 41.4748 10.0308 41.5282 10.302 41.6387C10.5733 41.7492 10.8202 41.9145 11.0282 42.1248C11.2336 42.3243 11.3971 42.5647 11.5089 42.8314C11.6207 43.0981 11.6784 43.3854 11.6784 43.6758C11.6784 43.9662 11.6207 44.2536 11.5089 44.5203C11.3971 44.787 11.2336 45.0274 11.0282 45.2269C10.8202 45.4372 10.5733 45.6025 10.302 45.713C10.0308 45.8235 9.74072 45.8769 9.44901 45.8701C9.15743 45.8759 8.86765 45.822 8.59654 45.7116C8.32542 45.6011 8.07838 45.4364 7.86979 45.2269C7.6667 45.0261 7.50514 44.7852 7.39478 44.5187C7.28442 44.2522 7.22754 43.9655 7.22754 43.6758C7.22754 43.3862 7.28442 43.0995 7.39478 42.833C7.50514 42.5665 7.6667 42.3256 7.86979 42.1248V42.1428ZM8.51903 44.6738C8.64051 44.8016 8.78562 44.9031 8.94583 44.9725C9.10603 45.0418 9.27811 45.0775 9.45193 45.0775C9.62576 45.0775 9.79784 45.0418 9.95804 44.9725C10.1183 44.9031 10.2634 44.8016 10.3848 44.6738C10.5091 44.5452 10.6069 44.3921 10.6722 44.2237C10.7375 44.0553 10.7691 43.8751 10.765 43.6939C10.7717 43.5078 10.7415 43.3223 10.6761 43.1487C10.6107 42.975 10.5116 42.8169 10.3848 42.6839C10.1371 42.4302 9.80164 42.2878 9.45193 42.2878C9.10223 42.2878 8.76678 42.4302 8.51903 42.6839C8.39403 42.8132 8.29588 42.9673 8.23053 43.1368C8.16518 43.3062 8.13399 43.4876 8.13884 43.6698C8.13013 43.8552 8.15947 44.0404 8.22497 44.2134C8.29047 44.3864 8.39066 44.5432 8.51903 44.6738Z" fill="white"/>
<path d="M16.1753 41.5896V45.7979H15.415L13.4029 43.1226V45.7979H12.4905V41.5896H13.2508L15.2629 44.2648V41.5896H16.1753Z" fill="white"/>
<path d="M20.2697 44.9863V45.7979H17.199V41.5896H20.2112V42.4012H18.0763V43.2428H19.7433V44.0544H18.0763V44.9863H20.2697Z" fill="white"/>
<path d="M25.089 41.5896V42.4012H23.9192V45.7979H23.0419V42.4012H21.8721V41.5896H25.089Z" fill="white"/>
<path d="M25.7329 41.5896H26.6103V45.7979H25.7329V41.5896Z" fill="white"/>
<path d="M31.2716 41.5896H32.0437V45.7979H31.1722V42.9904L29.8503 44.7157L28.5402 43.0024V45.7979H27.657V41.5896H28.4583L29.8562 43.3931L31.2716 41.5896Z" fill="white"/>
<path d="M36.173 44.9863V45.7979H33.0964V41.5896H36.1086V42.4012H33.9796V43.2428H35.6407V44.0544H33.9796V44.9863H36.173Z" fill="white"/>
<path d="M5.58879 49.2968C5.7625 49.2913 5.9355 49.322 6.09735 49.3871C6.25919 49.4522 6.40653 49.5503 6.53047 49.6755C6.76985 49.9281 6.90381 50.2668 6.90381 50.6194C6.90381 50.972 6.76985 51.3106 6.53047 51.5632C6.40614 51.6879 6.25873 51.7856 6.09698 51.8507C5.93523 51.9157 5.76242 51.9468 5.58879 51.942H4.47749V53.505H4.03882V49.2968H5.58879ZM4.47749 49.7176V51.5211H5.58879C5.82148 51.5211 6.04463 51.4261 6.20917 51.257C6.3737 51.0879 6.46614 50.8585 6.46614 50.6194C6.46614 50.3802 6.3737 50.1508 6.20917 49.9817C6.04463 49.8126 5.82148 49.7176 5.58879 49.7176H4.47749Z" fill="white"/>
<path d="M7.9871 52.3509L7.51919 53.5532H7.05127L8.74747 49.345H9.15689L10.8531 53.5532H10.3852L9.91726 52.3509H7.9871ZM8.95218 49.9462L8.16257 51.93H9.74179L8.95218 49.9462Z" fill="white"/>
<path d="M13.4147 52.0081C13.3285 51.9058 13.2204 51.8255 13.0988 51.7736C12.9582 51.7115 12.8136 51.6593 12.666 51.6173C12.5081 51.5752 12.3502 51.5211 12.1922 51.467C12.0414 51.4147 11.8963 51.3462 11.7594 51.2626C11.6249 51.1812 11.5154 51.0624 11.4436 50.92C11.3579 50.76 11.3155 50.5794 11.3207 50.3969C11.3183 50.2424 11.3497 50.0893 11.4124 49.9488C11.4752 49.8084 11.5678 49.6842 11.6834 49.5853C11.9559 49.3467 12.3089 49.2279 12.666 49.2547C12.808 49.2541 12.9496 49.2723 13.0871 49.3088C13.2032 49.3411 13.3151 49.3875 13.4205 49.4471L13.6662 49.6034C13.7208 49.64 13.7701 49.6845 13.8124 49.7356L13.865 49.7957L13.5667 50.0963V50.0543C13.5333 50.0163 13.496 49.982 13.4556 49.952C13.3989 49.9045 13.3383 49.8623 13.2743 49.8258C13.1945 49.7763 13.1077 49.7397 13.0169 49.7176C12.9121 49.6883 12.8039 49.6741 12.6952 49.6755C12.4631 49.6637 12.2347 49.7384 12.0519 49.8859C11.9772 49.9472 11.9169 50.0249 11.8754 50.1134C11.8339 50.2018 11.8122 50.2987 11.8121 50.3969C11.8075 50.5306 11.8513 50.6612 11.9349 50.7636C12.02 50.8711 12.1309 50.954 12.2566 51.0041C12.3852 51.0582 12.5315 51.1123 12.6894 51.1604C12.8473 51.2085 13.0052 51.2566 13.1632 51.3107C13.3136 51.3642 13.4585 51.4327 13.596 51.5151C13.7294 51.5973 13.8401 51.7132 13.9177 51.8518C14.0028 52.0141 14.0451 52.1965 14.0405 52.3808C14.0455 52.5442 14.015 52.7067 13.9513 52.8564C13.8876 53.0062 13.7922 53.1394 13.672 53.2465C13.3873 53.4843 13.0265 53.6043 12.6602 53.5832C12.3507 53.5841 12.0456 53.5077 11.7711 53.3608C11.6774 53.3049 11.5875 53.2427 11.5021 53.1744C11.4426 53.1301 11.3894 53.0775 11.3441 53.0181L11.2856 52.952L11.5547 52.6453L11.5956 52.6995L11.7302 52.8257C11.7954 52.8845 11.8659 52.9368 11.9407 52.982C12.0415 53.0335 12.1474 53.0739 12.2566 53.1022C12.3873 53.1432 12.5234 53.1635 12.6602 53.1624C12.9101 53.1797 13.1575 53.1027 13.3562 52.9459C13.4353 52.8766 13.498 52.7897 13.5395 52.6918C13.5811 52.5939 13.6004 52.4876 13.596 52.3808C13.5807 52.2383 13.5164 52.1061 13.4147 52.0081Z" fill="white"/>
<path d="M16.7195 52.0083C16.6333 51.906 16.5252 51.8257 16.4036 51.7738C16.263 51.7117 16.1184 51.6595 15.9708 51.6175C15.8129 51.5754 15.655 51.5213 15.497 51.4672C15.3462 51.4149 15.2011 51.3464 15.0642 51.2628C14.9292 51.18 14.8182 51.0617 14.7425 50.9201C14.6569 50.7602 14.6145 50.5796 14.6197 50.3971C14.6218 50.2409 14.6575 50.0871 14.7242 49.9468C14.7909 49.8065 14.8871 49.6831 15.0057 49.5855C15.2738 49.3555 15.6162 49.2375 15.965 49.2548C16.107 49.2543 16.2485 49.2725 16.3861 49.3089C16.5022 49.3413 16.6141 49.3877 16.7195 49.4472C16.8027 49.4938 16.8828 49.546 16.9593 49.6035C17.0155 49.6404 17.0667 49.6849 17.1113 49.7358L17.164 49.7959L16.8657 50.0965L16.8306 50.0544C16.8013 50.0145 16.7657 49.98 16.7253 49.9522C16.6686 49.9047 16.608 49.8624 16.544 49.826C16.4637 49.7775 16.377 49.741 16.2866 49.7178C16.1818 49.6884 16.0736 49.6743 15.965 49.6757C15.7328 49.6639 15.5044 49.7386 15.3216 49.8861C15.2469 49.9474 15.1866 50.0251 15.1451 50.1135C15.1036 50.202 15.0819 50.2989 15.0818 50.3971C15.0772 50.5307 15.121 50.6614 15.2046 50.7638C15.2897 50.8713 15.4006 50.9541 15.5263 51.0043C15.655 51.0584 15.8012 51.1125 15.9591 51.1606C16.117 51.2087 16.2749 51.2568 16.4329 51.3109C16.5833 51.3644 16.7282 51.4328 16.8657 51.5153C16.9991 51.5975 17.1098 51.7134 17.1874 51.8519C17.2696 52.0154 17.3118 52.197 17.3102 52.381C17.3152 52.5443 17.2847 52.7068 17.221 52.8566C17.1573 53.0063 17.0619 53.1396 16.9417 53.2467C16.657 53.4844 16.2962 53.6045 15.9299 53.5833C15.6085 53.5902 15.2907 53.5137 15.0057 53.3609C14.9121 53.3051 14.8222 53.2428 14.7367 53.1745C14.6772 53.1302 14.6241 53.0776 14.5788 53.0182L14.5203 52.9521L14.7893 52.6455L14.8303 52.6996L14.9648 52.8259C15.03 52.8846 15.1005 52.937 15.1753 52.9822C15.2762 53.0337 15.382 53.074 15.4912 53.1024C15.6219 53.1438 15.758 53.1641 15.8948 53.1625C16.1447 53.1798 16.3921 53.1029 16.5908 52.9461C16.6689 52.876 16.7309 52.7889 16.7724 52.6912C16.8139 52.5935 16.8337 52.4875 16.8306 52.381C16.8349 52.2475 16.7958 52.1164 16.7195 52.0083Z" fill="white"/>
<path d="M20.4978 50.0063L19.4158 53.5051H18.9771L17.6318 49.2969H18.0998L19.1818 52.8138L20.2697 49.2969H20.6791L21.7904 52.8138L22.8959 49.2969H23.3638L22.0244 53.5051H21.5857L20.4978 50.0063Z" fill="white"/>
<path d="M27.3702 52.9519C27.0316 53.3169 26.5801 53.5497 26.0929 53.6104C25.6058 53.6711 25.1133 53.5561 24.6995 53.2848C24.2858 53.0136 23.9765 52.6031 23.8247 52.1235C23.6728 51.6439 23.6877 51.125 23.8669 50.6554C24.046 50.1859 24.3783 49.7949 24.8069 49.5492C25.2354 49.3036 25.7337 49.2186 26.2165 49.3087C26.6993 49.3989 27.1367 49.6586 27.4538 50.0435C27.7709 50.4284 27.9481 50.9146 27.9551 51.4189C27.9639 51.7019 27.9166 51.9837 27.8161 52.2473C27.7155 52.5108 27.5638 52.7506 27.3702 52.9519ZM24.6914 52.6574C25.004 52.9717 25.4239 53.1477 25.8612 53.1477C26.2985 53.1477 26.7184 52.9717 27.031 52.6574C27.1898 52.4959 27.3148 52.3027 27.3983 52.0897C27.4818 51.8768 27.522 51.6485 27.5165 51.4189C27.5214 51.1886 27.481 50.9596 27.3975 50.7457C27.3141 50.5318 27.1894 50.3375 27.031 50.1745C26.7163 49.8644 26.2972 49.6912 25.8612 49.6912C25.4252 49.6912 25.0061 49.8644 24.6914 50.1745C24.534 50.338 24.4104 50.5325 24.328 50.7464C24.2456 50.9602 24.2061 51.189 24.2118 51.4189C24.2055 51.648 24.2448 51.8761 24.3273 52.089C24.4097 52.302 24.5337 52.4954 24.6914 52.6574Z" fill="white"/>
<path d="M30.5816 49.2968C30.7485 49.2914 30.9148 49.3205 31.0705 49.3825C31.2263 49.4445 31.3683 49.538 31.4882 49.6575C31.6055 49.7739 31.6979 49.9143 31.7593 50.0696C31.8208 50.2249 31.8499 50.3917 31.845 50.5593C31.8468 50.7279 31.817 50.8952 31.7572 51.0522C31.707 51.18 31.6358 51.298 31.5467 51.4009C31.4687 51.48 31.3846 51.5524 31.2952 51.6173C31.23 51.6645 31.1593 51.7029 31.0846 51.7316H30.9969L31.9678 53.5051H31.4706L30.564 51.8217H29.3942V53.5051H28.9556V49.2968H30.5816ZM29.4118 49.7176V51.4009H30.5816C30.7981 51.406 31.0079 51.3241 31.1665 51.1725C31.3035 51.0038 31.3786 50.791 31.3786 50.5713C31.3786 50.3515 31.3035 50.1388 31.1665 49.9701C31.0079 49.8185 30.7981 49.7365 30.5816 49.7417L29.4118 49.7176Z" fill="white"/>
<path d="M34.1845 49.2968C34.4624 49.2874 34.7394 49.3358 34.9987 49.4391C35.258 49.5424 35.4943 49.6985 35.6935 49.898C35.8892 50.0895 36.045 50.3198 36.1515 50.5751C36.258 50.8303 36.3129 51.1052 36.3129 51.3829C36.3129 51.6606 36.258 51.9355 36.1515 52.1907C36.045 52.446 35.8892 52.6764 35.6935 52.8678C35.4943 53.0673 35.258 53.2234 34.9987 53.3267C34.7394 53.43 34.4624 53.4784 34.1845 53.469H32.8918V49.2968H34.1845ZM33.3364 49.7176V53.0843H34.1845C34.4068 53.0905 34.6281 53.0505 34.8351 52.9669C35.0422 52.8832 35.2306 52.7575 35.3893 52.5973C35.5482 52.4431 35.674 52.2566 35.7586 52.0495C35.8433 51.8424 35.8848 51.6195 35.8807 51.3949C35.8859 51.1702 35.8449 50.9469 35.7602 50.7397C35.6755 50.5325 35.5491 50.346 35.3893 50.1926C35.2317 50.0304 35.0436 49.903 34.8364 49.8183C34.6292 49.7335 34.4074 49.6931 34.1845 49.6996L33.3364 49.7176Z" fill="white"/>
<path d="M39.115 52.008C39.0289 51.9058 38.9207 51.8255 38.7992 51.7736C38.6585 51.7115 38.5139 51.6592 38.3663 51.6173C38.2084 51.5752 38.0505 51.5211 37.8926 51.467C37.7417 51.4147 37.5966 51.3462 37.4597 51.2626C37.3266 51.1794 37.2175 51.0611 37.1439 50.9199C37.0582 50.76 37.0158 50.5794 37.0211 50.3969C37.0187 50.2423 37.05 50.0892 37.1127 49.9488C37.1755 49.8083 37.2681 49.6841 37.3837 49.5853C37.6488 49.3541 37.9899 49.2358 38.3371 49.2546C38.4791 49.2541 38.6207 49.2723 38.7582 49.3087C38.8758 49.3422 38.9895 49.3886 39.0975 49.447C39.1852 49.5011 39.2671 49.5492 39.3373 49.6033C39.3919 49.6399 39.4412 49.6845 39.4835 49.7356L39.5361 49.7957L39.2378 50.0963L39.2086 50.0542C39.1751 50.0162 39.1379 49.982 39.0975 49.952C39.0408 49.9045 38.9801 49.8622 38.9161 49.8258C38.8379 49.7772 38.7532 49.7407 38.6646 49.7175C38.5577 49.6888 38.4476 49.6746 38.3371 49.6755C38.105 49.6637 37.8765 49.7384 37.6937 49.8859C37.619 49.9471 37.5587 50.0249 37.5172 50.1133C37.4757 50.2018 37.4541 50.2987 37.4539 50.3969C37.4493 50.5305 37.4931 50.6612 37.5767 50.7636C37.6619 50.8711 37.7727 50.9539 37.8984 51.0041C38.0271 51.0582 38.1733 51.1123 38.3312 51.1604C38.4892 51.2085 38.6471 51.2566 38.805 51.3107C38.9554 51.3642 39.1004 51.4326 39.2378 51.5151C39.3712 51.5973 39.482 51.7132 39.5595 51.8517C39.6446 52.0141 39.687 52.1964 39.6824 52.3808C39.6874 52.5441 39.6569 52.7066 39.5931 52.8564C39.5294 53.0061 39.434 53.1394 39.3139 53.2465C39.0291 53.4842 38.6683 53.6043 38.302 53.5831C37.9925 53.584 37.6874 53.5077 37.413 53.3607C37.3202 53.3064 37.2322 53.244 37.1498 53.1743C37.0875 53.1315 37.0322 53.0787 36.986 53.018L36.9275 52.9519L37.1965 52.6453L37.2375 52.6994L37.372 52.8257C37.4382 52.886 37.5108 52.9384 37.5884 52.982C37.6867 53.0346 37.7908 53.075 37.8984 53.1022C38.0292 53.1432 38.1653 53.1635 38.302 53.1623C38.548 53.1767 38.7908 53.0999 38.9863 52.9459C39.0654 52.8766 39.1281 52.7897 39.1697 52.6918C39.2112 52.5939 39.2305 52.4875 39.2261 52.3808C39.2304 52.2473 39.1913 52.1162 39.115 52.008Z" fill="white"/>
<path d="M32.0963 18.7148L33.5936 17.6207L30.3006 12.8593L28.8033 13.9535L29.9029 15.5406L29.1776 16.0396C28.5864 15.3063 27.8972 14.6627 27.1305 14.1278V10.2202C27.1305 8.75488 26.5642 7.34961 25.5561 6.3135C24.5481 5.27739 23.1809 4.69531 21.7553 4.69531C20.3297 4.69531 18.9625 5.27739 17.9545 6.3135C16.9464 7.34961 16.3801 8.75488 16.3801 10.2202V14.0978C14.8397 15.1662 13.634 16.6711 12.9091 18.4299C12.1843 20.1887 11.9715 22.1258 12.2964 24.0065C12.6214 25.8871 13.4702 27.6305 14.74 29.0251C16.0097 30.4198 17.6459 31.4059 19.45 31.8638C21.2542 32.3217 23.1488 32.2318 24.9042 31.6049C26.6597 30.9781 28.2004 29.8412 29.3398 28.3322C30.4791 26.8232 31.168 25.0069 31.323 23.1035C31.4779 21.2001 31.0923 19.2913 30.2129 17.6087L30.9791 17.0796L32.0963 18.7148ZM18.6846 12.9495V10.2202C18.6846 9.38309 19.0081 8.5803 19.584 7.98839C20.1599 7.39649 20.9409 7.06396 21.7553 7.06396C22.5697 7.06396 23.3507 7.39649 23.9266 7.98839C24.5025 8.5803 24.826 9.38309 24.826 10.2202V12.9315C22.8357 12.2302 20.6749 12.2302 18.6846 12.9315V12.9495Z" fill="#7CB342"/>
<path d="M26.61 13.7731L21.7554 22.2798V12.4204C23.4618 12.42 25.1374 12.8869 26.61 13.7731Z" fill="#88D20F"/>
<path d="M25.8615 18.8289H17.6496C16.7903 18.8289 16.0938 19.5448 16.0938 20.428V24.1373C16.0938 25.0205 16.7903 25.7364 17.6496 25.7364H25.8615C26.7208 25.7364 27.4173 25.0205 27.4173 24.1373V20.428C27.4173 19.5448 26.7208 18.8289 25.8615 18.8289Z" fill="white"/>
<path d="M17.9304 20.1878H19.5739V20.7048H17.8485C17.8134 20.7048 17.7958 20.7048 17.7958 20.7709V21.6426C17.7958 21.7388 17.7958 21.8831 17.7958 22.0755C17.7958 22.1296 17.8368 22.1536 17.8777 22.1536H18.8252C18.9382 22.1493 19.0505 22.1733 19.1524 22.2236C19.2543 22.2738 19.3428 22.3489 19.4101 22.4422C19.4762 22.5383 19.5238 22.6464 19.5505 22.7608C19.5505 22.7608 19.5505 22.8089 19.5505 22.8269V23.6265C19.5375 23.7812 19.4916 23.931 19.416 24.0654C19.3357 24.2182 19.2166 24.3459 19.0714 24.4348C18.9262 24.5237 18.7603 24.5706 18.5913 24.5704H17.2051V24.0473H18.5562C18.6566 24.0533 18.756 24.0246 18.8387 23.9658C18.9214 23.907 18.9825 23.8214 19.0124 23.7227C19.0353 23.6613 19.0472 23.5961 19.0475 23.5303V22.9291C19.0492 22.8825 19.0365 22.8365 19.0113 22.7976C18.9861 22.7588 18.9497 22.7291 18.9071 22.7127C18.8744 22.7054 18.8405 22.7054 18.8077 22.7127H17.8719C17.7719 22.7123 17.6737 22.6855 17.5867 22.635C17.4997 22.5845 17.4267 22.5119 17.3747 22.4241C17.3098 22.3159 17.2773 22.1905 17.2811 22.0634V20.7589C17.2844 20.6629 17.3101 20.5692 17.3559 20.4855C17.4017 20.4019 17.4663 20.3307 17.5443 20.2779C17.661 20.208 17.7957 20.1766 17.9304 20.1878Z" fill="#88D20F"/>
<path d="M20.7669 21.4382C20.7677 21.4864 20.7588 21.5343 20.7407 21.5788C20.7226 21.6233 20.6957 21.6635 20.6617 21.6967C20.6282 21.7318 20.5881 21.7595 20.5439 21.7781C20.4996 21.7967 20.4521 21.8059 20.4043 21.8049C20.3566 21.8052 20.3093 21.7958 20.2651 21.7772C20.221 21.7586 20.1808 21.7313 20.147 21.6967C20.1135 21.663 20.087 21.6228 20.0689 21.5784C20.0508 21.534 20.0415 21.4863 20.0417 21.4382C20.0405 21.3899 20.0493 21.3419 20.0674 21.2974C20.0856 21.2528 20.1127 21.2127 20.147 21.1797C20.2158 21.1107 20.3081 21.072 20.4043 21.072C20.5005 21.072 20.5928 21.1107 20.6617 21.1797C20.6959 21.2127 20.723 21.2528 20.7412 21.2974C20.7593 21.3419 20.7681 21.3899 20.7669 21.4382ZM20.7669 23.879C20.7677 23.9282 20.7589 23.977 20.741 24.0226C20.723 24.0682 20.6963 24.1096 20.6625 24.1444C20.6287 24.1791 20.5884 24.2066 20.544 24.225C20.4997 24.2435 20.4521 24.2525 20.4043 24.2517C20.3323 24.2521 20.2618 24.2305 20.2019 24.1895C20.1419 24.1486 20.0951 24.0902 20.0675 24.0219C20.0399 23.9536 20.0327 23.8783 20.0469 23.8058C20.061 23.7332 20.0959 23.6666 20.147 23.6145C20.2158 23.5454 20.3081 23.5068 20.4043 23.5068C20.5005 23.5068 20.5928 23.5454 20.6617 23.6145C20.6953 23.6493 20.7219 23.6906 20.74 23.736C20.758 23.7813 20.7672 23.83 20.7669 23.879Z" fill="#88D20F"/>
<path d="M22.2526 20.1697H22.4105C22.6176 20.1637 22.8215 20.2224 22.9954 20.338C23.1365 20.4389 23.2499 20.5754 23.3246 20.7344C23.3994 20.8934 23.4331 21.0695 23.4224 21.2458V23.398C23.4285 23.5974 23.3863 23.7952 23.2995 23.9736C23.2127 24.152 23.0841 24.3054 22.9253 24.42C22.7894 24.505 22.6339 24.5507 22.4749 24.5523H22.1532C22.0053 24.5494 21.8599 24.5129 21.7274 24.4453C21.5949 24.3778 21.4786 24.2808 21.387 24.1615C21.2278 23.9416 21.1362 23.6778 21.1238 23.404V21.2338C21.1348 21.0954 21.1663 20.9595 21.2174 20.831C21.2664 20.7024 21.3405 20.5854 21.435 20.4872C21.5295 20.389 21.6426 20.3116 21.7672 20.2599C21.9194 20.1896 22.0861 20.1586 22.2526 20.1697ZM21.6677 21.1857V23.4461C21.6692 23.5441 21.6939 23.6403 21.7398 23.7262C21.7857 23.8121 21.8513 23.8852 21.9309 23.9391C22.0096 23.9912 22.1006 24.0203 22.1941 24.0232H22.469C22.6796 24.0232 22.8258 23.885 22.9077 23.6084C22.9128 23.5565 22.9128 23.5041 22.9077 23.4521V21.1917C22.9133 21.1003 22.8924 21.0092 22.8476 20.93C22.8029 20.8508 22.7362 20.7871 22.6562 20.7468C22.5979 20.718 22.5338 20.7036 22.469 20.7047H22.159C22.0808 20.7048 22.0036 20.7227 21.9328 20.757C21.862 20.7912 21.7995 20.8412 21.7496 20.9031C21.6921 20.9854 21.6614 21.0843 21.6619 21.1857H21.6677Z" fill="#88D20F"/>
<path d="M25.1301 20.1695H25.288C25.427 20.1604 25.5663 20.1822 25.6964 20.2333C25.8265 20.2844 25.9443 20.3637 26.042 20.4658C26.1396 20.5678 26.2148 20.6903 26.2623 20.8249C26.3098 20.9594 26.3286 21.1029 26.3174 21.2456V23.3978C26.3236 23.5972 26.2813 23.795 26.1945 23.9734C26.1077 24.1518 25.9791 24.3052 25.8203 24.4198C25.6845 24.5048 25.5289 24.5505 25.3699 24.5521H25.0482C24.9003 24.5493 24.7549 24.5127 24.6224 24.4452C24.4899 24.3776 24.3737 24.2806 24.282 24.1613C24.1229 23.9414 24.0312 23.6776 24.0188 23.4038V21.2336C24.0298 21.0952 24.0613 20.9594 24.1124 20.8308C24.1614 20.7022 24.2355 20.5852 24.33 20.487C24.4246 20.3888 24.5376 20.3114 24.6622 20.2597C24.8091 20.1922 24.9694 20.1613 25.1301 20.1695ZM24.5452 21.1855V23.4459C24.5467 23.5439 24.5714 23.6401 24.6173 23.726C24.6631 23.8119 24.7288 23.885 24.8084 23.9389C24.8871 23.991 24.9781 24.0201 25.0716 24.0231H25.3465C25.5571 24.0231 25.7033 23.8848 25.7852 23.6082C25.7903 23.5563 25.7903 23.5039 25.7852 23.4519V21.1915C25.7908 21.1001 25.7699 21.009 25.7251 20.9298C25.6803 20.8506 25.6137 20.7869 25.5337 20.7466C25.4753 20.7178 25.4112 20.7034 25.3465 20.7045H25.0365C24.9591 20.7043 24.8825 20.722 24.8127 20.7563C24.7428 20.7907 24.6814 20.8408 24.6329 20.9029C24.5714 20.9835 24.5384 21.0831 24.5394 21.1855H24.5452Z" fill="#88D20F"/>
<path d="M17.7428 15.5586C17.9359 15.8953 18.1698 16.1298 18.2634 16.0756C18.357 16.0215 18.2634 15.6909 18.0938 15.3482C17.9242 15.0055 17.6668 14.747 17.5674 14.8312C17.4679 14.9154 17.5498 15.216 17.7428 15.5586Z" fill="white"/>
<path d="M21.7555 13.6829C21.6444 13.6829 21.5508 14.0015 21.5508 14.3983C21.5508 14.795 21.6444 15.1137 21.7555 15.1137C21.8666 15.1137 21.9602 14.789 21.9602 14.3983C21.9602 14.0075 21.8666 13.6829 21.7555 13.6829Z" fill="white"/>
<path d="M15.0056 18.5223C15.339 18.7207 15.6548 18.7988 15.7074 18.6966C15.7601 18.5944 15.5378 18.3599 15.2103 18.1616C14.8827 17.9632 14.5611 17.885 14.5026 17.9812C14.4441 18.0774 14.6722 18.3239 15.0056 18.5223Z" fill="white"/>
<path d="M27.8032 18.6967C27.8558 18.7989 28.1717 18.6966 28.505 18.5223C28.8384 18.348 29.0899 18.0834 29.0081 17.9812C28.9262 17.879 28.6337 17.9812 28.3062 18.1616C27.9786 18.342 27.7447 18.6005 27.8032 18.6967Z" fill="white"/>
<path d="M14.0815 22.4963C14.4659 22.4963 14.7775 22.4021 14.7775 22.2859C14.7775 22.1696 14.4659 22.0754 14.0815 22.0754C13.6971 22.0754 13.3855 22.1696 13.3855 22.2859C13.3855 22.4021 13.6971 22.4963 14.0815 22.4963Z" fill="white"/>
<path d="M25.9433 14.8312C25.8439 14.7771 25.6099 15.0055 25.4169 15.3482C25.2239 15.6909 25.1479 16.0155 25.2473 16.0756C25.3467 16.1357 25.5807 15.8953 25.7679 15.5586C25.955 15.2219 26.0369 14.8913 25.9433 14.8312Z" fill="white"/>
<path d="M25.7678 29.0189C25.5807 28.6762 25.3408 28.4177 25.2473 28.5019C25.1537 28.586 25.2473 28.8806 25.4169 29.2233C25.5865 29.566 25.8439 29.8245 25.9433 29.7403C26.0427 29.6561 25.9608 29.3555 25.7678 29.0189Z" fill="white"/>
<path d="M30.1252 22.2857C30.1252 22.1715 29.8152 22.0813 29.4292 22.0813C29.0431 22.0813 28.7332 22.1715 28.7332 22.2857C28.7332 22.3999 29.049 22.4961 29.4292 22.4961C29.8094 22.4961 30.1252 22.3999 30.1252 22.2857Z" fill="white"/>
<path d="M28.505 26.0551C28.1716 25.8567 27.8558 25.7725 27.8031 25.8747C27.7505 25.9769 27.9727 26.2174 28.3003 26.4098C28.6278 26.6021 28.9495 26.6863 29.008 26.5901C29.0665 26.4939 28.8384 26.2474 28.505 26.0551Z" fill="white"/>
<path d="M15.7075 25.8509C15.6548 25.7487 15.339 25.8509 15.0056 26.0312C14.6722 26.2116 14.4499 26.4701 14.5026 26.5663C14.5552 26.6625 14.8769 26.5663 15.2103 26.3859C15.5437 26.2056 15.766 25.9711 15.7075 25.8509Z" fill="white"/>
<path d="M21.7555 30.8947C21.8686 30.8947 21.9602 30.5744 21.9602 30.1793C21.9602 29.7842 21.8686 29.4639 21.7555 29.4639C21.6424 29.4639 21.5508 29.7842 21.5508 30.1793C21.5508 30.5744 21.6424 30.8947 21.7555 30.8947Z" fill="white"/>
<path d="M18.2635 28.5021C18.1699 28.442 17.936 28.6764 17.743 29.0191C17.5499 29.3618 17.4739 29.6804 17.5675 29.7405C17.6611 29.8006 17.9009 29.5662 18.0939 29.2235C18.2869 28.8808 18.363 28.5562 18.2635 28.5021Z" fill="white"/>
</g>
<defs>
<clipPath id="clip0">
<rect width="42.6272" height="58.8255" fill="white" transform="translate(0.383301)"/>
</clipPath>
</defs>
</svg>
