<svg width="44" height="59" viewBox="0 0 44 59" fill="none" xmlns="http://www.w3.org/2000/svg">
<g clip-path="url(#clip0)">
<path d="M0.275151 36.8232V54.5878C0.274362 55.1221 0.379107 55.6513 0.583403 56.1452C0.7877 56.6392 1.08755 57.0881 1.46583 57.4665C1.84411 57.8449 2.29341 58.1452 2.78808 58.3504C3.28275 58.5556 3.81311 58.6616 4.34886 58.6624H39.9264C40.4621 58.6616 40.9925 58.5556 41.4871 58.3504C41.9818 58.1452 42.4311 57.8449 42.8094 57.4665C43.1877 57.0881 43.4875 56.6392 43.6918 56.1452C43.8961 55.6513 44.0009 55.1221 44.0001 54.5878V36.8232H0.275151Z" fill="#88D20F"/>
<path d="M0.575195 36.524V4.21396C0.57519 3.21471 0.972396 2.25621 1.67977 1.54851C2.38713 0.840815 3.34697 0.441644 4.34893 0.438477H39.9264C40.9284 0.441644 41.8882 0.840815 42.5956 1.54851C43.303 2.25621 43.7002 3.21471 43.7002 4.21396V36.524H0.575195Z" fill="white"/>
<path d="M39.9264 0.737738C40.8488 0.740904 41.7323 1.10856 42.3834 1.76015C43.0345 2.41174 43.4001 3.29415 43.4001 4.21406V36.2249H0.875109V4.21406C0.875103 3.29415 1.2407 2.41174 1.89182 1.76015C2.54293 1.10856 3.42647 0.740904 4.34886 0.737738H39.9264ZM39.9264 0.139404H4.34886C3.81311 0.140189 3.28275 0.246206 2.78808 0.451402C2.29341 0.656597 1.84411 0.956953 1.46583 1.33532C1.08755 1.71369 0.7877 2.16265 0.583403 2.65659C0.379107 3.15052 0.274362 3.67975 0.275151 4.21406V36.8232H44.0001V4.21406C44.0009 3.67975 43.8961 3.15052 43.6918 2.65659C43.4875 2.16265 43.1877 1.71369 42.8094 1.33532C42.4311 0.956953 41.9818 0.656597 41.4871 0.451402C40.9925 0.246206 40.4621 0.140189 39.9264 0.139404V0.139404Z" fill="#88D20F"/>
<path d="M11.7763 44.1529C11.6137 44.0605 11.4404 43.9881 11.2603 43.9375C11.0569 43.8801 10.8567 43.8122 10.6604 43.7341C10.4566 43.6556 10.2782 43.5232 10.1444 43.3511C9.99527 43.1556 9.91891 42.9145 9.92842 42.669C9.92775 42.5033 9.96401 42.3395 10.0346 42.1895C10.1051 42.0395 10.2082 41.9069 10.3364 41.8015C10.6335 41.5547 11.012 41.4267 11.3983 41.4425C11.5662 41.4406 11.7336 41.4607 11.8963 41.5023C12.0322 41.536 12.1648 41.5821 12.2923 41.6399C12.3855 41.6903 12.4757 41.7463 12.5622 41.8074C12.6237 41.8463 12.6784 41.8947 12.7242 41.951L12.7782 42.0109L12.2383 42.6092C12.2098 42.5722 12.1776 42.5381 12.1423 42.5075C12.0613 42.4446 11.9726 42.3923 11.8783 42.3519C11.7498 42.2873 11.6082 42.2525 11.4643 42.2502C11.3127 42.2394 11.1625 42.2865 11.0443 42.3818C10.9961 42.4196 10.957 42.4677 10.93 42.5226C10.903 42.5775 10.8888 42.6378 10.8884 42.699C10.8896 42.7701 10.9105 42.8395 10.9485 42.8996C10.9866 42.9597 11.0405 43.0083 11.1043 43.04C11.2655 43.1339 11.4392 43.2044 11.6203 43.2494C11.8183 43.3093 12.0223 43.3811 12.2203 43.4588C12.4262 43.5363 12.6067 43.6688 12.7422 43.8418C12.8914 44.0373 12.9677 44.2784 12.9582 44.5239C12.9637 44.7042 12.9283 44.8835 12.8545 45.0482C12.7807 45.213 12.6706 45.3589 12.5322 45.4752C12.1925 45.743 11.7641 45.8734 11.3323 45.8402C11.142 45.8407 10.9524 45.8166 10.7684 45.7684C10.6119 45.7316 10.4608 45.6753 10.3184 45.6009C10.1984 45.5291 10.0964 45.4633 10.0064 45.3974C9.93633 45.3467 9.87195 45.2885 9.81443 45.2239L9.74243 45.1521L10.2884 44.6136L10.4024 44.7333C10.5013 44.8175 10.6126 44.8861 10.7324 44.9367C10.9 45.0201 11.085 45.0631 11.2723 45.0624C11.4554 45.0724 11.6361 45.0173 11.7823 44.9068C11.8397 44.861 11.8858 44.8026 11.917 44.7362C11.9482 44.6698 11.9637 44.5972 11.9623 44.5239C11.9703 44.4508 11.957 44.3769 11.924 44.3111C11.891 44.2453 11.8397 44.1904 11.7763 44.1529Z" fill="white"/>
<path d="M16.906 44.9128V45.7206H13.7562V41.5322H16.846V42.34H14.6742V43.1776H16.384V43.9854H14.6742V44.9128H16.906Z" fill="white"/>
<path d="M20.4158 41.532C20.5867 41.5763 20.7503 41.6448 20.9017 41.7354C21.0204 41.8106 21.1345 41.8925 21.2437 41.9808C21.3213 42.0446 21.3936 42.1146 21.4597 42.1902L21.5257 42.2799L20.9257 42.8483L20.8777 42.7825L20.7697 42.621C20.7001 42.551 20.6214 42.4907 20.5358 42.4415C20.4323 42.3799 20.3214 42.3317 20.2058 42.2979C20.0698 42.2556 19.9283 42.2334 19.7858 42.2321C19.6046 42.2321 19.4252 42.2677 19.2577 42.3368C19.0903 42.406 18.9382 42.5073 18.8101 42.6351C18.6819 42.7629 18.5803 42.9146 18.5109 43.0816C18.4416 43.2486 18.4059 43.4275 18.4059 43.6082C18.4059 43.789 18.4416 43.9679 18.5109 44.1349C18.5803 44.3018 18.6819 44.4535 18.8101 44.5813C18.9382 44.7091 19.0903 44.8105 19.2577 44.8796C19.4252 44.9488 19.6046 44.9844 19.7858 44.9844C19.9342 44.9835 20.0817 44.9613 20.2238 44.9186C20.3458 44.8842 20.4628 44.8339 20.5718 44.769C20.6562 44.7175 20.7364 44.6595 20.8117 44.5955C20.8691 44.5536 20.9197 44.5031 20.9617 44.4459L21.0097 44.3861L21.5557 44.9844L21.4837 45.0741C21.4154 45.1458 21.3433 45.2137 21.2677 45.2776C21.1587 45.3733 21.0401 45.4575 20.9137 45.5289C20.7573 45.6179 20.5899 45.6863 20.4158 45.7323C20.2208 45.7895 20.019 45.8197 19.8158 45.8221C19.5158 45.8283 19.2175 45.7748 18.9383 45.6649C18.6592 45.555 18.4048 45.3908 18.1899 45.1818C17.9816 44.982 17.8159 44.7423 17.7027 44.477C17.5895 44.2117 17.5311 43.9264 17.5311 43.6381C17.5311 43.3499 17.5895 43.0646 17.7027 42.7993C17.8159 42.534 17.9816 42.2943 18.1899 42.0945C18.3988 41.8837 18.6472 41.716 18.921 41.601C19.1948 41.4861 19.4887 41.426 19.7858 41.4243C19.9999 41.4293 20.2122 41.4656 20.4158 41.532Z" fill="white"/>
<path d="M24.7294 44.7154C24.8191 44.6226 24.8892 44.5129 24.9356 44.3926C24.9819 44.2724 25.0036 44.1441 24.9994 44.0153V41.5322H25.8994V44.0153C25.905 44.253 25.8615 44.4893 25.7717 44.7096C25.6819 44.9299 25.5477 45.1294 25.3774 45.2957C25.0228 45.6268 24.5552 45.811 24.0695 45.811C23.5838 45.811 23.1162 45.6268 22.7616 45.2957C22.5913 45.1294 22.457 44.9299 22.3672 44.7096C22.2774 44.4893 22.234 44.253 22.2396 44.0153V41.5322H23.1396V44.0153C23.136 44.2757 23.2351 44.5271 23.4155 44.7154C23.4992 44.8058 23.6008 44.878 23.7139 44.9274C23.827 44.9768 23.9491 45.0023 24.0725 45.0023C24.1959 45.0023 24.318 44.9768 24.4311 44.9274C24.5441 44.878 24.6457 44.8058 24.7294 44.7154Z" fill="white"/>
<path d="M26.9492 41.532H28.8091C28.9988 41.5258 29.1879 41.5576 29.3651 41.6254C29.5423 41.6932 29.7041 41.7957 29.841 41.9269C30.0266 42.1131 30.156 42.3476 30.2143 42.6037C30.2727 42.8597 30.2577 43.1269 30.171 43.3749C30.1292 43.5021 30.0664 43.6214 29.985 43.7279C29.9191 43.8111 29.8469 43.8891 29.769 43.9612C29.7114 44.0137 29.6468 44.058 29.577 44.0929L29.499 44.1348L30.399 45.7203H29.439L28.6291 44.2544H27.8732V45.7203H26.9732L26.9492 41.532ZM29.1871 42.5013C29.134 42.4477 29.0703 42.4057 29.0001 42.3778C28.9298 42.35 28.8546 42.3371 28.7791 42.3398H27.8732V43.4467H28.8031C28.878 43.4491 28.9527 43.4366 29.0228 43.4099C29.0928 43.3832 29.1568 43.3428 29.2111 43.2911C29.263 43.2418 29.3042 43.1823 29.332 43.1165C29.3599 43.0506 29.3739 42.9797 29.373 42.9082C29.3727 42.8311 29.3559 42.755 29.3239 42.6848C29.2918 42.6147 29.2452 42.5521 29.1871 42.5013Z" fill="white"/>
<path d="M34.3588 44.9128V45.7206H31.209V41.5322H34.2988V42.34H32.1089V43.1776H33.8188V43.9854H32.1089V44.9128H34.3588Z" fill="white"/>
<path d="M8.38652 49.2028C8.56562 49.1972 8.74401 49.2277 8.91101 49.2925C9.07802 49.3572 9.2302 49.4549 9.35845 49.5797C9.60685 49.8296 9.74622 50.1673 9.74622 50.5191C9.74622 50.871 9.60685 51.2086 9.35845 51.4585C9.23152 51.5834 9.08042 51.6813 8.91436 51.7461C8.7483 51.8109 8.57075 51.8413 8.39252 51.8355H7.2526V53.3911H6.79663V49.2028H8.38652ZM7.2526 49.6216V51.4166H8.38652C8.50653 51.4223 8.62644 51.4035 8.73889 51.3613C8.85135 51.3191 8.95397 51.2545 9.04047 51.1713C9.1995 50.9911 9.28723 50.7592 9.28723 50.5191C9.28723 50.279 9.1995 50.0472 9.04047 49.867C8.95397 49.7838 8.85135 49.7191 8.73889 49.677C8.62644 49.6348 8.50653 49.6159 8.38652 49.6216H7.2526Z" fill="white"/>
<path d="M10.8164 52.2422L10.3365 53.4388H9.87451L11.6144 49.2505H12.0344L13.7742 53.4388H13.2943L12.8143 52.2422H10.8164ZM11.8064 49.8488L10.9964 51.8233H12.6163L11.8064 49.8488Z" fill="white"/>
<path d="M15.346 51.4643L16.6059 49.2026H17.1159L15.556 51.925V53.391H15.106V51.943L13.5461 49.2026H14.0741L15.334 51.4464L15.346 51.4643Z" fill="white"/>
<path d="M19.9958 52.1943L18.3159 49.9805V53.391H17.866V49.2026H18.2739L20.0138 51.4763L21.7537 49.2026H22.1437V53.391H21.6937V49.9805L19.9958 52.1943Z" fill="white"/>
<path d="M26.3253 52.9901V53.391H23.3855V49.2026H26.2593V49.6215H23.8595V50.9976H25.8033V51.4165H23.8355V52.9721L26.3253 52.9901Z" fill="white"/>
<path d="M30.639 49.2026V53.391H30.2731L27.6933 50.0104V53.391H27.2433V49.2026H27.6333L30.2131 52.5832V49.2026H30.639Z" fill="white"/>
<path d="M34.4727 49.2026V49.6215H33.1528V53.391H32.7028V49.6215H31.3829V49.2026H34.4727Z" fill="white"/>
<path d="M37.2326 51.9012C37.142 51.7992 37.0291 51.7193 36.9026 51.6679C36.7583 51.6061 36.61 51.5541 36.4586 51.5123C36.2966 51.4704 36.1347 51.4166 35.9727 51.3627C35.8179 51.3107 35.6691 51.2425 35.5287 51.1593C35.3921 51.0766 35.2802 50.9588 35.2047 50.8183C35.1169 50.6591 35.0733 50.4793 35.0787 50.2977C35.0763 50.1439 35.1084 49.9915 35.1728 49.8517C35.2371 49.7119 35.3321 49.5883 35.4507 49.49C35.7227 49.2599 36.0725 49.1421 36.4286 49.1609C36.5778 49.1554 36.7271 49.1695 36.8726 49.2028C36.9932 49.2361 37.1098 49.2822 37.2206 49.3404C37.3106 49.3942 37.3946 49.4421 37.4666 49.4959C37.523 49.5342 37.5753 49.5783 37.6225 49.6276L37.6705 49.6874L37.3706 49.9866L37.3346 49.9447C37.3002 49.9069 37.262 49.8728 37.2206 49.843C37.1624 49.7957 37.1002 49.7536 37.0346 49.7173C36.9544 49.669 36.8674 49.6327 36.7766 49.6096C36.667 49.5806 36.554 49.5666 36.4406 49.5677C36.2025 49.556 35.9682 49.6304 35.7807 49.7772C35.7041 49.8381 35.6422 49.9155 35.5996 50.0035C35.5571 50.0916 35.5349 50.188 35.5347 50.2857C35.53 50.4187 35.5749 50.5488 35.6607 50.6507C35.7493 50.7563 35.8626 50.8385 35.9907 50.8901C36.1287 50.9439 36.2726 50.9978 36.4346 51.0456C36.5966 51.0935 36.7586 51.1414 36.9206 51.1952C37.0754 51.2473 37.2242 51.3154 37.3646 51.3986C37.5028 51.4787 37.6168 51.5944 37.6945 51.7337C37.7818 51.8953 37.8253 52.0768 37.8205 52.2602C37.8257 52.4228 37.7944 52.5845 37.729 52.7336C37.6636 52.8826 37.5658 53.0153 37.4426 53.1218C37.151 53.3595 36.7805 53.4791 36.4046 53.4569C36.2325 53.4568 36.0611 53.4347 35.8947 53.3911C35.757 53.355 35.6241 53.3028 35.4987 53.2355C35.4008 53.1829 35.3084 53.1207 35.2227 53.05C35.1588 53.0074 35.1021 52.9549 35.0547 52.8945L35.0007 52.8287L35.2707 52.5235L35.3187 52.5774C35.3584 52.6235 35.4027 52.6656 35.4507 52.703C35.5186 52.7631 35.593 52.8153 35.6727 52.8586C35.774 52.91 35.8806 52.9501 35.9907 52.9782C36.1249 53.0186 36.2644 53.0388 36.4046 53.0381C36.661 53.0553 36.9148 52.9787 37.1186 52.8227C37.2008 52.7543 37.2663 52.6681 37.3099 52.5706C37.3536 52.4731 37.3744 52.367 37.3706 52.2602C37.3654 52.1287 37.3169 52.0025 37.2326 51.9012Z" fill="white"/>
<path d="M31.419 10.9512H12.5264C11.032 10.9512 9.82056 12.1593 9.82056 13.6497V22.1041C9.82056 23.5944 11.032 24.8026 12.5264 24.8026H31.419C32.9134 24.8026 34.1248 23.5944 34.1248 22.1041V13.6497C34.1248 12.1593 32.9134 10.9512 31.419 10.9512Z" fill="#88D20F"/>
<path d="M34.1249 21.1289V22.0324C34.1249 22.7671 33.8322 23.4717 33.3113 23.9913C32.7903 24.5108 32.0838 24.8027 31.347 24.8027H12.5984C11.8616 24.8027 11.1551 24.5108 10.6342 23.9913C10.1132 23.4717 9.82056 22.7671 9.82056 22.0324V21.1289C9.81977 21.4932 9.89104 21.8541 10.0303 22.1909C10.1695 22.5277 10.374 22.8338 10.632 23.0917C10.8901 23.3495 11.1966 23.5541 11.534 23.6937C11.8714 23.8333 12.2331 23.9052 12.5984 23.9052H31.347C31.7123 23.9052 32.074 23.8333 32.4115 23.6937C32.7489 23.5541 33.0554 23.3495 33.3134 23.0917C33.5714 22.8338 33.7759 22.5277 33.9151 22.1909C34.0544 21.8541 34.1256 21.4932 34.1249 21.1289Z" fill="#7CB342"/>
<path d="M13.1682 17.2039H19.9178C20.0617 17.2039 20.0617 17.2039 20.0077 17.3295C19.8698 17.7005 19.7318 18.0774 19.5878 18.4484C19.5288 18.596 19.4295 18.7241 19.3012 18.8182C19.1729 18.9123 19.0207 18.9687 18.8618 18.9809C18.6959 18.9989 18.528 18.9805 18.3699 18.9271L13.2702 17.2577L13.1622 17.2218L13.1682 17.2039Z" fill="white"/>
<path d="M13.3303 19.4595H19.0299C19.1859 19.4595 19.1859 19.4595 19.1259 19.6091L18.7479 20.6023C18.6674 20.8064 18.5098 20.9709 18.309 21.0604C18.1082 21.1499 17.8802 21.1573 17.674 21.081L13.4203 19.5073L13.3303 19.4595Z" fill="white"/>
<path d="M13.9722 21.1948H16.372C16.444 21.1948 16.48 21.1948 16.444 21.2906C16.354 21.5 16.282 21.7094 16.198 21.8889C16.1622 21.9684 16.1094 22.0391 16.0434 22.0961C15.9773 22.1531 15.8996 22.195 15.8156 22.2189C15.7316 22.2429 15.6434 22.2482 15.5571 22.2346C15.4708 22.221 15.3886 22.1888 15.3161 22.1402C14.9021 21.8231 14.4761 21.5419 14.0562 21.2188C14.0275 21.2135 13.9993 21.2055 13.9722 21.1948Z" fill="white"/>
<path d="M34.1248 13.7217H9.82056V15.6663H34.1248V13.7217Z" fill="#6FA13B"/>
<path d="M38.9123 23.7017H38.0724V22.5768C38.0931 22.0473 38.0064 21.519 37.8175 21.0237C37.6286 20.5284 37.3414 20.0762 36.973 19.6943C36.6047 19.3123 36.1628 19.0084 35.6739 18.8009C35.185 18.5933 34.6591 18.4863 34.1277 18.4863C33.5963 18.4863 33.0704 18.5933 32.5815 18.8009C32.0926 19.0084 31.6507 19.3123 31.2823 19.6943C30.914 20.0762 30.6268 20.5284 30.4379 21.0237C30.2489 21.519 30.1622 22.0473 30.183 22.5768V23.7017H29.343C29.2682 23.7017 29.1965 23.7313 29.1436 23.784C29.0907 23.8368 29.061 23.9083 29.061 23.9829V31.0073C29.061 31.3041 29.1792 31.5887 29.3896 31.7985C29.6 32.0083 29.8854 32.1262 30.183 32.1262H38.0724C38.3705 32.1262 38.6565 32.0085 38.8678 31.7989C39.0792 31.5892 39.1987 31.3046 39.2003 31.0073V23.9829C39.2003 23.9455 39.1928 23.9084 39.1783 23.8739C39.1638 23.8394 39.1424 23.8081 39.1156 23.7819C39.0888 23.7557 39.057 23.7351 39.0221 23.7213C38.9872 23.7076 38.9499 23.7009 38.9123 23.7017ZM36.3805 23.7017H31.8688V22.5768C31.8688 21.9801 32.1065 21.4079 32.5296 20.986C32.9526 20.5641 33.5264 20.3271 34.1247 20.3271C34.723 20.3271 35.2967 20.5641 35.7198 20.986C36.1429 21.4079 36.3805 21.9801 36.3805 22.5768V23.7017Z" fill="#6FA13B"/>
</g>
<defs>
<clipPath id="clip0">
<rect width="43.7249" height="58.5469" fill="white" transform="translate(0.275146 0.139404)"/>
</clipPath>
</defs>
</svg>
