<svg width="45" height="59" viewBox="0 0 45 59" fill="none" xmlns="http://www.w3.org/2000/svg">
<g clip-path="url(#clip0)">
<path d="M0.766362 36.8584V54.7074C0.765578 55.2443 0.869735 55.776 1.07289 56.2723C1.27604 56.7686 1.5742 57.2197 1.95036 57.5999C2.32652 57.98 2.7733 58.2818 3.2652 58.488C3.7571 58.6942 4.28448 58.8007 4.81723 58.8015H40.1952C40.728 58.8007 41.2554 58.6942 41.7473 58.488C42.2392 58.2818 42.686 57.98 43.0621 57.5999C43.4383 57.2197 43.7364 56.7686 43.9396 56.2723C44.1427 55.776 44.2469 55.2443 44.2461 54.7074V36.8584H0.766362Z" fill="#88D20F"/>
<path d="M1.0647 36.5578V4.09399C1.06469 3.08998 1.45967 2.12692 2.16307 1.41586C2.86648 0.70479 3.82093 0.303719 4.81727 0.300537H40.1953C41.1916 0.303719 42.1461 0.70479 42.8495 1.41586C43.5529 2.12692 43.9479 3.08998 43.9478 4.09399V36.5578H1.0647Z" fill="white"/>
<path d="M40.1952 0.601181C41.1125 0.604362 41.991 0.973763 42.6385 1.62846C43.286 2.28315 43.6495 3.16976 43.6495 4.09404V36.2572H1.36296V4.09404C1.36295 3.16976 1.7265 2.28315 2.37396 1.62846C3.02142 0.973763 3.90001 0.604362 4.81723 0.601181H40.1952ZM40.1952 0H4.81723C4.28448 0.000788902 3.7571 0.10731 3.2652 0.313482C2.7733 0.519654 2.32652 0.821439 1.95036 1.20161C1.5742 1.58177 1.27604 2.03288 1.07289 2.52916C0.869735 3.02545 0.765578 3.55719 0.766362 4.09404V36.8584H44.2461V4.09404C44.2469 3.55719 44.1427 3.02545 43.9396 2.52916C43.7364 2.03288 43.4383 1.58177 43.0621 1.20161C42.686 0.821439 42.2392 0.519654 41.7473 0.313482C41.2554 0.10731 40.728 0.000788902 40.1952 0V0Z" fill="#88D20F"/>
<path d="M19.3143 44.2229C19.1531 44.129 18.9807 44.0563 18.8012 44.0065C18.5989 43.9489 18.3998 43.8806 18.2046 43.8021C18.002 43.7233 17.8246 43.5903 17.6915 43.4174C17.5411 43.2217 17.463 42.9794 17.4708 42.732C17.471 42.5656 17.5074 42.4013 17.5775 42.2507C17.6476 42.1001 17.7496 41.9668 17.8765 41.8603C18.1719 41.6123 18.5483 41.4838 18.9324 41.4996C19.0994 41.4977 19.2659 41.5179 19.4276 41.5597C19.5628 41.5936 19.6946 41.6399 19.8214 41.698C19.9141 41.7486 20.0038 41.8048 20.0898 41.8663C20.1513 41.9072 20.2074 41.9556 20.2569 42.0106L20.3046 42.0707L19.7736 42.6719C19.7736 42.6418 19.714 42.6118 19.6722 42.5697C19.5912 42.5073 19.5031 42.4548 19.4097 42.4134C19.2821 42.3479 19.1413 42.3129 18.9981 42.3112C18.8493 42.3019 18.7024 42.3491 18.5864 42.4434C18.5374 42.4804 18.4979 42.5286 18.4709 42.584C18.4439 42.6394 18.4304 42.7004 18.4313 42.7621C18.4314 42.833 18.4509 42.9026 18.4877 42.9631C18.5246 43.0236 18.5773 43.0726 18.6401 43.1047C18.8008 43.1981 18.9735 43.2689 19.1532 43.3152C19.356 43.3753 19.5529 43.4474 19.7498 43.5256C19.9545 43.6034 20.1341 43.7365 20.2688 43.9103C20.4171 44.1068 20.493 44.349 20.4836 44.5957C20.4891 44.7769 20.4538 44.957 20.3805 45.1225C20.3071 45.288 20.1976 45.4347 20.06 45.5515C19.7318 45.8125 19.32 45.943 18.9026 45.9183C18.7114 45.9187 18.5209 45.8945 18.3359 45.8461C18.1806 45.8081 18.0304 45.7516 17.8884 45.6778C17.7806 45.6166 17.677 45.5483 17.5782 45.4734C17.5085 45.4224 17.4445 45.3639 17.3873 45.2991L17.3157 45.2269L17.8586 44.6859L17.9719 44.8061C18.0717 44.8918 18.1845 44.9608 18.306 45.0105C18.471 45.0933 18.6527 45.1365 18.837 45.1367C19.0191 45.1468 19.1988 45.0914 19.3441 44.9804C19.4019 44.9347 19.4487 44.8763 19.4807 44.8096C19.5128 44.7429 19.5293 44.6698 19.529 44.5957C19.5335 44.5192 19.5154 44.443 19.4773 44.3768C19.4391 44.3105 19.3824 44.257 19.3143 44.2229Z" fill="white"/>
<path d="M22.8941 44.2229C22.7303 44.13 22.556 44.0574 22.375 44.0065C22.1725 43.9499 21.9733 43.8816 21.7784 43.8021C21.5748 43.7252 21.3969 43.5918 21.2654 43.4173C21.1171 43.2209 21.0412 42.9786 21.0506 42.732C21.0508 42.5656 21.0872 42.4013 21.1573 42.2507C21.2274 42.1 21.3295 41.9668 21.4563 41.8602C21.7512 41.6112 22.1279 41.4826 22.5123 41.4995C22.6792 41.498 22.8456 41.5182 23.0074 41.5597C23.1426 41.5935 23.2744 41.6398 23.4012 41.6979C23.4939 41.7486 23.5836 41.8048 23.6697 41.8663C23.7307 41.9053 23.7851 41.954 23.8307 42.0105L23.8844 42.0707L23.3475 42.6718L23.252 42.5696C23.1701 42.5086 23.0821 42.4562 22.9895 42.4133C22.8598 42.3477 22.717 42.3128 22.5719 42.3111C22.4231 42.3018 22.2763 42.349 22.1603 42.4434C22.1123 42.4813 22.0735 42.5297 22.0466 42.5849C22.0198 42.64 22.0056 42.7006 22.0052 42.762C22.0065 42.8327 22.0266 42.9017 22.0633 42.962C22.1 43.0222 22.152 43.0715 22.214 43.1047C22.3752 43.1969 22.5477 43.2676 22.727 43.3151C22.9299 43.3752 23.1327 43.4474 23.3236 43.5255C23.5284 43.6034 23.7079 43.7365 23.8427 43.9103C23.9741 44.1026 24.0409 44.3322 24.0336 44.5656C24.0398 44.7463 24.0054 44.9261 23.9331 45.0916C23.8608 45.2571 23.7524 45.404 23.616 45.5214C23.2781 45.7905 22.8521 45.9215 22.4228 45.8882C22.2335 45.8886 22.045 45.8644 21.862 45.816C21.7045 45.7789 21.5522 45.7224 21.4086 45.6477C21.3027 45.5866 21.201 45.5183 21.1043 45.4433C21.0342 45.3905 20.9684 45.3322 20.9074 45.2689L20.8418 45.1968L21.3787 44.6557C21.3787 44.6557 21.4444 44.7279 21.498 44.776C21.5957 44.8616 21.7065 44.9306 21.8262 44.9804C21.9929 45.0641 22.1768 45.1074 22.3631 45.1066C22.5451 45.1157 22.7244 45.0604 22.8702 44.9503C22.9273 44.9043 22.9731 44.8456 23.0042 44.7789C23.0352 44.7122 23.0506 44.6392 23.0492 44.5656C23.0535 44.5 23.0416 44.4343 23.0146 44.3745C22.9875 44.3147 22.9461 44.2626 22.8941 44.2229Z" fill="white"/>
<path d="M24.8628 45.7979V41.5896H25.7577V44.9863H27.6966V45.7979H24.8628Z" fill="white"/>
<path d="M12.9905 52.0141C12.9037 51.9066 12.7906 51.8237 12.6624 51.7736C12.5312 51.7195 12.382 51.6654 12.2209 51.6173C12.0599 51.5692 11.8988 51.5211 11.7377 51.467C11.5843 51.4135 11.4364 51.345 11.2962 51.2626C11.1604 51.1794 11.0491 51.0611 10.9741 50.9199C10.8867 50.76 10.8434 50.5794 10.8488 50.3969C10.8463 50.2424 10.8783 50.0892 10.9423 49.9488C11.0063 49.8083 11.1007 49.6841 11.2187 49.5853C11.4897 49.3552 11.8371 49.237 12.1911 49.2546C12.3364 49.2531 12.4812 49.2734 12.6206 49.3148C12.7411 49.3438 12.8574 49.3882 12.9667 49.447C13.0562 49.5011 13.1397 49.5492 13.2113 49.6033C13.266 49.6436 13.3179 49.6878 13.3664 49.7356L13.4141 49.7957L13.1158 50.0963L13.08 50.0542L12.9667 49.952C12.9089 49.9045 12.847 49.8622 12.7817 49.8258C12.702 49.7772 12.6155 49.7407 12.5252 49.7176C12.4162 49.6884 12.3038 49.6743 12.1911 49.6755C11.9543 49.6637 11.7213 49.7384 11.5348 49.8859C11.4595 49.9475 11.3988 50.0254 11.3575 50.1139C11.3162 50.2024 11.2952 50.2991 11.2962 50.3969C11.2936 50.5311 11.3356 50.6623 11.4155 50.7696C11.5055 50.8722 11.6178 50.9524 11.7437 51.0041C11.8875 51.0653 12.0349 51.1175 12.1851 51.1604C12.3462 51.2025 12.5073 51.2566 12.6684 51.3107C12.8223 51.363 12.9702 51.4315 13.1099 51.5151C13.2473 51.5955 13.3607 51.7118 13.438 51.8517C13.5248 52.0141 13.568 52.1965 13.5633 52.3808C13.5684 52.5442 13.5373 52.7066 13.4723 52.8564C13.4073 53.0061 13.3099 53.1394 13.1874 53.2465C12.8993 53.4844 12.5331 53.6045 12.1613 53.5831C11.9882 53.5831 11.8158 53.5608 11.6482 53.517C11.5113 53.4808 11.3791 53.4283 11.2544 53.3607C11.1571 53.3078 11.0652 53.2454 10.98 53.1743C10.9165 53.1315 10.8601 53.0787 10.813 53.018L10.7593 52.9519L11.0337 52.6453C11.0447 52.6655 11.0588 52.6837 11.0755 52.6994C11.115 52.7458 11.1589 52.788 11.2067 52.8257C11.2728 52.8878 11.3471 52.9404 11.4275 52.982C11.5282 53.0336 11.6342 53.0739 11.7437 53.1022C11.8791 53.1432 12.0199 53.1634 12.1613 53.1623C12.4144 53.1798 12.665 53.1028 12.8653 52.9459C12.947 52.8772 13.0121 52.7906 13.0555 52.6926C13.099 52.5947 13.1196 52.488 13.1158 52.3808C13.1205 52.2471 13.0758 52.1165 12.9905 52.0141Z" fill="white"/>
<path d="M17.4113 53.1023V53.5051H14.488V49.2969H17.3517V49.7177H14.9355V51.1004H16.8744V51.5212H14.9355V53.0843L17.4113 53.1023Z" fill="white"/>
<path d="M18.6643 49.8979C18.8642 49.6989 19.1021 49.543 19.3636 49.4397C19.6252 49.3363 19.9049 49.2877 20.1857 49.2967C20.3879 49.2966 20.589 49.327 20.7822 49.3869C20.9529 49.4351 21.1156 49.508 21.2655 49.6033C21.3821 49.6802 21.4937 49.7645 21.5996 49.8558C21.6759 49.9233 21.7458 49.9977 21.8084 50.0783L21.874 50.1684L21.5757 50.439L21.522 50.3608C21.522 50.3608 21.4445 50.2706 21.3609 50.1865C21.2738 50.1063 21.18 50.0339 21.0805 49.97C20.9567 49.8962 20.8245 49.8377 20.6868 49.7957C20.5211 49.742 20.3478 49.7156 20.1737 49.7175C19.9517 49.715 19.7314 49.7579 19.5263 49.8437C19.3212 49.9295 19.1356 50.0563 18.9805 50.2165C18.8189 50.3796 18.6918 50.5739 18.6066 50.7877C18.5215 51.0016 18.4803 51.2306 18.4854 51.461C18.4797 51.6905 18.5207 51.9188 18.6059 52.1318C18.691 52.3448 18.8185 52.5379 18.9805 52.6994C19.1344 52.8616 19.3197 52.9901 19.525 53.077C19.7303 53.1638 19.9511 53.2072 20.1737 53.2044C20.3473 53.2056 20.5201 53.1812 20.6868 53.1323C20.8299 53.0894 20.9665 53.0267 21.0925 52.9459C21.1933 52.8836 21.2891 52.8132 21.3788 52.7355C21.4456 52.685 21.504 52.6241 21.5519 52.5551L21.6055 52.483L21.9038 52.7535C21.8835 52.7881 21.8595 52.8204 21.8323 52.8497C21.8323 52.8858 21.7308 52.9519 21.6234 53.0541C21.5142 53.1527 21.3964 53.2412 21.2715 53.3186C21.1211 53.4116 20.9584 53.4824 20.7882 53.529C20.5956 53.5926 20.3943 53.6251 20.1916 53.6252C19.7607 53.6307 19.338 53.5058 18.9782 53.2665C18.6185 53.0273 18.3383 52.6849 18.1738 52.2834C18.0093 51.882 17.9681 51.44 18.0555 51.0148C18.143 50.5895 18.3551 50.2004 18.6643 49.8979Z" fill="white"/>
<path d="M25.3042 52.7837C25.4234 52.6644 25.5171 52.5218 25.5797 52.3646C25.6422 52.2075 25.6723 52.0392 25.6681 51.8699V49.2969H26.1156V51.8519C26.1125 52.3043 25.9331 52.7374 25.6162 53.0579C25.2993 53.3783 24.8702 53.5605 24.4212 53.5653C23.9722 53.559 23.5433 53.3765 23.2258 53.0565C22.9082 52.7366 22.7271 52.3044 22.7209 51.8519V49.2969H23.1624V51.8519C23.159 52.0216 23.19 52.1902 23.2536 52.3473C23.3172 52.5045 23.4121 52.6468 23.5323 52.7657C23.6455 52.887 23.7824 52.9833 23.9343 53.0484C24.0863 53.1136 24.2501 53.1463 24.4153 53.1444C24.5801 53.1495 24.7442 53.12 24.8973 53.058C25.0503 52.9959 25.1888 52.9025 25.3042 52.7837Z" fill="white"/>
<path d="M28.9791 49.2967C29.1484 49.2915 29.3171 49.3207 29.4749 49.3827C29.6328 49.4447 29.7766 49.5381 29.8978 49.6575C30.0175 49.7739 30.1117 49.9143 30.1744 50.0696C30.2371 50.2249 30.2668 50.3917 30.2617 50.5592C30.2636 50.7278 30.2333 50.8952 30.1722 51.0522C30.1248 51.1819 30.0517 51.3005 29.9575 51.4009C29.8793 51.4814 29.7933 51.5539 29.7009 51.6173C29.6345 51.6645 29.5623 51.7029 29.4862 51.7315H29.3967L30.381 53.505H29.8739L28.9492 51.8217H27.756V53.505H27.3086V49.2967H28.9791ZM27.7859 49.7176V51.4009H28.9791C29.0887 51.4009 29.1973 51.3791 29.2987 51.3368C29.4 51.2945 29.4921 51.2325 29.5696 51.1544C29.6472 51.0762 29.7087 50.9834 29.7507 50.8813C29.7927 50.7792 29.8143 50.6698 29.8143 50.5592C29.8143 50.4487 29.7927 50.3393 29.7507 50.2371C29.7087 50.135 29.6472 50.0422 29.5696 49.9641C29.4921 49.8859 29.4 49.8239 29.2987 49.7816C29.1973 49.7393 29.0887 49.7176 28.9791 49.7176H27.7859Z" fill="white"/>
<path d="M34.259 53.1023V53.5051H31.3357V49.2969H34.1755V49.7177H31.7891V51.1004H33.728V51.5212H31.7891V53.0843L34.259 53.1023Z" fill="white"/>
<path d="M22.5064 29.1752L19.1297 27.3175C17.2181 26.2676 15.6225 24.718 14.5108 22.8318C13.399 20.9456 12.8121 18.7923 12.8118 16.5985V11.9754H13.7544C16.6969 11.9817 19.5852 11.1772 22.1067 9.64883L22.5243 9.40234L22.9419 9.64883C25.4638 11.1763 28.3518 11.9808 31.2942 11.9754H32.2369V16.5985C32.233 18.7952 31.6413 20.9503 30.5242 22.8367C29.4071 24.7231 27.8058 26.271 25.8891 27.3175L22.5064 29.1752Z" fill="#7CB342"/>
<path d="M14.4285 13.5928V16.5987C14.4291 18.4992 14.9374 20.3645 15.9 21.9988C16.8626 23.633 18.244 24.9761 19.8992 25.887L22.5063 27.3178L25.1135 25.887C26.7709 24.9777 28.1548 23.6353 29.1195 22.0009C30.0843 20.3665 30.5944 18.5004 30.5962 16.5987V13.5928C27.76 13.4847 24.9904 12.6953 22.5183 11.2903C20.0428 12.6978 17.2688 13.4873 14.4285 13.5928Z" fill="#88D20F"/>
<path d="M20.8895 21.8348L17.9065 18.8289L19.052 17.6746L20.9014 19.5443L25.9724 14.4282L27.1179 15.5765L20.8895 21.8348Z" fill="white"/>
</g>
<defs>
<clipPath id="clip0">
<rect width="43.4797" height="58.8255" fill="white" transform="translate(0.766357)"/>
</clipPath>
</defs>
</svg>
