<svg width="478" height="698" viewBox="0 0 478 698" fill="none" xmlns="http://www.w3.org/2000/svg">
<path d="M448.272 123.091L367.435 153.016L349.908 230.287L394.258 286.034C394.258 286.034 458.514 253.414 464.352 211.09C470.19 168.767 448.272 123.091 448.272 123.091Z" fill="#8C500A"/>
<path d="M392.903 170.7C392.903 170.7 421.278 187.793 418.135 207.883C414.993 227.973 376.494 253.348 376.494 253.348L350.92 225.803L362.004 176.972L392.903 170.7Z" fill="#6B3C02"/>
<path d="M428.549 295.422H376.047L273.647 422.05L171.628 408.902C171.628 408.902 202.027 351.892 216.701 329.633C231.374 307.373 260.472 270.164 260.485 269.665C260.564 264.708 260.643 256.385 260.38 248.247C259.872 239.232 258.422 230.295 256.054 221.583L370.919 168.991C370.919 168.991 361.715 196.128 361.255 210.92C361.028 218.625 361.362 226.337 362.254 233.994C362.38 235.102 362.805 236.155 363.483 237.04C364.162 237.925 365.069 238.608 366.107 239.017C369.354 240.332 374.417 242.672 379.847 245.486C381.057 246.327 395.139 262.315 412.6 277.304C418.315 282.98 423.643 289.033 428.549 295.422Z" fill="#F0D4BD"/>
<path d="M428.549 295.422H376.047L273.647 422.05L171.628 408.902C171.628 408.902 186.328 381.292 200.212 357.06L257.053 347.672C277.539 336.194 330.435 278.632 339.205 244.027C345.214 220.36 346.568 194.064 346.831 179.983L370.919 168.952C370.919 168.952 361.715 196.089 361.255 210.881C361.028 218.586 361.362 226.298 362.254 233.955C362.38 235.063 362.805 236.116 363.483 237.001C364.162 237.886 365.069 238.569 366.107 238.978C369.354 240.293 374.417 242.633 379.847 245.447C381.057 246.288 395.139 262.276 412.6 277.265C418.316 282.954 423.645 289.02 428.549 295.422Z" fill="#E6CBB5"/>
<path d="M364.423 188.766C364.423 188.766 372.023 197.272 378.887 193.709C385.225 190.387 390.199 184.949 392.943 178.339C395.283 172.489 396.164 162.246 394.257 158.289C392.351 154.331 388.538 149.48 383.581 150.216C378.624 150.952 372.102 157.776 372.102 157.776L364.423 188.766Z" fill="#F0D2B9"/>
<path d="M381.319 42.1128L336.956 44.8739L369.222 78.7299L381.319 42.1128Z" fill="#FFE7D2"/>
<path d="M283.495 40.5486C270.504 46.8465 260.34 57.4569 250.979 72.3798C241.617 87.3028 234.438 99.9249 229.192 122.697C223.945 145.469 229.665 174.645 235.398 188.871C241.13 203.097 251.781 238.123 273.331 243.054C294.881 247.984 314.591 232.641 329.12 223.424C343.649 214.207 361.387 198.969 368.829 184.138C376.271 169.307 377.454 145.483 374.68 110.509C371.905 75.5354 365.699 62.1376 351.906 48.6477C338.114 35.1579 296.486 34.2507 283.495 40.5486Z" fill="#FFE7D2"/>
<path d="M381.306 42.0735C381.306 42.0735 355.719 44.1377 354.444 53.9067C353.169 63.6756 368.999 90.8788 371.892 108.497C374.785 126.115 365.988 140.578 372.116 160.366C378.243 180.154 395.257 181.587 407.617 185.031C419.976 188.476 425.853 225.369 431.77 217.073C443.933 199.981 448.258 123.065 448.258 123.065C448.258 123.065 432.06 89.0512 421.699 74.5621C411.338 60.0731 381.306 42.0735 381.306 42.0735Z" fill="#8C500A"/>
<path d="M263.535 82.6354C264.219 88.026 289.701 95.1391 291.581 100.964C293.461 106.788 283.824 116.846 279.524 119.673C275.224 122.5 247.547 113.573 244.404 118.122C241.262 122.671 243.773 146.521 248.349 151.202C250.085 152.951 251.978 145.496 255.896 141.157C262.47 133.926 270.754 126.024 271.464 127.286C272.174 128.548 265.034 137.975 264.601 143.787C264.167 149.598 271.845 158.144 276.027 160.498C280.208 162.851 298.313 155.344 299.247 157.079C300.18 158.815 291.647 167.256 286.611 168.742C281.575 170.227 261.826 167.558 260.669 173.172C259.512 178.787 278.249 197.707 279.445 202.361C280.642 207.015 267.454 210.697 263.89 217.77C260.327 224.844 270.964 235.901 282.877 237.006C294.789 238.11 320.639 220.886 322.783 223.516C323.23 224.055 322.099 226.224 320.035 229.341C306.82 237.874 290.674 247.038 273.331 243.067C251.781 238.137 241.13 203.11 235.398 188.884C229.665 174.658 223.945 145.496 229.192 122.697C234.438 99.8987 241.683 87.3029 250.979 72.3799C260.275 57.457 270.504 46.8466 283.495 40.5487C292.212 36.315 313.828 35.3684 331.276 39.2339C331.276 39.2339 346.792 43.599 344.662 48.043C342.532 52.4871 313.592 47.6223 295.762 55.0509C277.933 62.4795 262.852 77.2447 263.535 82.6354Z" fill="#F5DDC9"/>
<path d="M352.116 54.0251C366.842 53.7752 377.598 47.4379 381.306 42.0735C385.014 36.7092 378.676 25.0732 362.109 13.0691C345.542 1.06499 337.456 0 299.43 0C261.405 0 240.038 58.0746 235.791 73.9311C231.545 89.7876 218.015 108.773 210.98 129.626C203.946 150.479 218.869 182.086 227.127 194.196C235.384 206.305 247.586 221.451 249.479 221.451C237.645 199.021 240.998 190.58 237.553 171.621C234.108 152.661 234.753 127.535 242.339 108.3C249.926 89.0644 278.932 52.3158 296.577 49.134C314.222 45.9522 337.364 54.2749 352.116 54.0251Z" fill="#8C500A"/>
<path d="M325.766 50.5281C316.957 49.7655 307.016 47.2279 296.576 49.1213C284.02 51.3959 265.704 70.6839 253.449 88.5652C277.524 35.0529 277.669 20.5244 290.502 17.4478C304.886 14.0162 316.799 20.8925 321.769 28.7156C324.977 33.6855 326.003 44.7035 325.766 50.5281Z" fill="#6B3C02"/>
<path d="M247.336 72.7217C238.02 83.7701 231.283 96.7548 227.613 110.732C221.854 133.492 231.689 162.996 231.689 162.996C231.689 162.996 229.06 133.755 235.752 116.794C242.353 100.254 247.336 72.7217 247.336 72.7217Z" fill="#6B3C02"/>
<path d="M302.968 141.156C300.233 141.156 303.191 161.063 305.86 168.005C308.53 174.947 312.264 180.285 312.592 184.834C312.921 189.383 295.999 203.491 295.999 203.491C295.999 203.491 312.329 207.659 320.731 204.385C334.524 199.021 348.567 185.754 346.726 177.287C345.911 173.566 336.444 164.783 326.688 159.59C313.789 152.714 304.493 141.156 302.968 141.156Z" fill="#F5DDC9"/>
<path d="M321.362 98.7151C321.362 98.7151 304.058 107.603 300.64 113.638C297.221 119.673 316.221 126.563 316.221 126.563C316.221 126.563 311.79 116.82 313.236 111.324C314.682 105.828 321.362 98.7151 321.362 98.7151Z" fill="#F5DDC9"/>
<path d="M372.496 117.648C372.594 114.595 372.4 111.539 371.918 108.523C369.959 96.6242 365.975 84.1731 364.029 74.3384C375.599 82.2272 410.785 108.655 418.174 145.903C403.251 132.097 382.529 122.039 372.496 117.648Z" fill="#7A4506"/>
<path d="M285.401 110.785C285.401 110.785 288.136 119.147 287.11 124.012C287.11 124.012 280.431 137.541 270.293 143.234C270.293 143.234 281.272 133.031 283.573 122.605L285.401 110.772V110.785Z" fill="#BA742D"/>
<path d="M283.245 164.258C279.616 164.021 275.356 160.076 271.069 155.935C266.783 151.793 263.522 146.521 268.637 143.786C268.637 143.786 267.033 147.612 280.286 154.475C280.286 154.475 283.1 156.803 292.948 157.105C288.81 158.838 284.159 158.89 279.984 157.25C276.214 155.624 272.867 153.154 270.201 150.031C270.201 150.031 272.279 155.291 280.391 161.352C280.391 161.352 282.535 164.323 291.252 161.707C291.252 161.707 286.887 164.52 283.245 164.336V164.258Z" fill="#BA742D"/>
<g style="mix-blend-mode:multiply">
<path d="M283.245 164.258C279.616 164.021 275.356 160.076 271.069 155.935C266.783 151.793 263.522 146.521 268.637 143.786C268.637 143.786 267.032 147.612 280.286 154.475C280.286 154.475 283.1 156.803 292.948 157.105C292.948 157.105 303.612 155.672 291.252 161.707C291.252 161.707 286.887 164.52 283.245 164.336V164.258Z" fill="#FAD6BE"/>
</g>
<path d="M281.114 139.736C284.283 135.792 288.136 132.189 289.871 127.43C292.054 121.434 290.752 116.912 288.556 111.468C288.497 111.529 288.45 111.601 288.418 111.68C288.387 111.759 288.371 111.843 288.372 111.928C288.569 113.914 288.78 115.873 288.898 117.635C288.743 122.692 287.126 127.597 284.244 131.756C281.364 135.937 277.078 138.75 273.988 142.59C276.417 141.778 278.796 140.825 281.114 139.736Z" fill="#FAEDE6"/>
<path d="M286.019 152.819C288.451 151.32 284.033 148.691 282.942 148.349C281.443 147.953 279.919 147.664 278.379 147.481C278.012 147.798 277.755 148.224 277.649 148.698C277.542 149.172 277.591 149.667 277.788 150.111C278.375 151.3 279.252 152.322 280.338 153.082C281.242 153.477 282.224 153.658 283.209 153.613C284.194 153.567 285.155 153.295 286.019 152.819Z" fill="#FAEDE6"/>
<path d="M346.081 108.747C345.35 107.157 344.256 105.76 342.886 104.671C339.569 101.738 335.445 99.8727 331.052 99.3198C327.607 98.807 316.208 98.36 310.922 101.516C310.642 102.097 310.434 102.711 310.304 103.343C310.261 103.272 310.226 103.198 310.199 103.12V102.988C309.969 103.947 309.881 104.935 309.936 105.92C310.015 105.999 310.067 106.091 310.146 106.157C310.248 106.22 310.37 106.243 310.488 106.222C310.513 106.366 310.553 106.507 310.606 106.643C318.982 105.026 326.266 102.857 334.458 106.42C340.151 108.878 345.595 112.691 348.172 118.253C348.369 114.952 347.645 111.661 346.081 108.747Z" fill="#8C500A"/>
<g style="mix-blend-mode:multiply">
<path d="M341.572 107.524C336.51 102.633 330.08 101.66 323.295 102.265C320.655 102.327 318.038 102.77 315.525 103.58C314.351 104.179 313.091 104.591 311.791 104.802C311.13 104.836 310.476 104.646 309.937 104.263C309.884 104.819 309.884 105.378 309.937 105.933C310.015 106.012 310.068 106.104 310.147 106.17C310.249 106.233 310.371 106.257 310.489 106.236C310.514 106.379 310.554 106.52 310.607 106.656C318.983 105.039 326.267 102.87 334.458 106.433C338.841 108.204 342.733 111.005 345.806 114.598C344.947 111.95 343.5 109.532 341.572 107.524Z" fill="#D5C68D"/>
</g>
<g style="mix-blend-mode:multiply">
<path d="M334.708 105.591C330.763 104.605 327.647 102.317 323.597 102.278C320.06 102.278 312.658 106.051 310.068 103.501C309.784 104.774 309.82 106.097 310.173 107.353C312.908 108.181 317.957 107.156 320.218 107.195C331.171 107.379 340.809 108.326 346.975 118.581C347.186 118.923 347.843 118.581 347.83 118.266C347.528 111.008 340.888 107.143 334.708 105.591Z" fill="#FAD6BE"/>
</g>
<path d="M290.161 104.71C290.695 104.165 291.17 103.566 291.581 102.922L290.936 103.383L290.726 103.501C291.046 102.921 291.302 102.309 291.489 101.673C289.74 95.8487 281.377 89.0907 278.748 87.3551C275.298 85.0544 271.181 83.9674 267.046 84.2653C265.362 84.3041 263.714 84.7556 262.246 85.5801C259.225 87.0257 256.646 89.255 254.778 92.0358C260.037 89.1301 266.283 89.4062 271.871 91.0103C279.76 93.2323 283.56 99.425 288.386 105.894C289.096 105.716 289.723 105.298 290.161 104.71Z" fill="#8C500A"/>
<g style="mix-blend-mode:multiply">
<path d="M290.161 104.71L290.397 104.461C289.792 104.434 289.22 104.181 288.793 103.751C288 102.749 287.366 101.632 286.913 100.437C285.683 98.2316 284.122 96.2274 282.285 94.4944C277.867 89.8137 272.726 86.6056 266.112 87.3945C263.438 87.8192 260.9 88.8589 258.696 90.4316C263.047 89.4367 267.585 89.6136 271.845 90.9444C279.734 93.1664 283.534 99.3591 288.359 105.828C289.07 105.673 289.706 105.279 290.161 104.71Z" fill="#D5C68D"/>
</g>
<g style="mix-blend-mode:multiply">
<path d="M290.16 104.71C290.436 104.421 290.739 104.079 291.028 103.711C287.517 104.553 284.598 96.5849 282.034 94.3629C279.168 91.8648 275.539 91.7333 272.147 90.103C266.887 87.4734 259.748 86.4873 255.054 92.1541C254.817 92.4433 255.054 93.0876 255.448 92.9429C266.19 88.4989 273.567 93.745 281.39 100.437C282.613 101.476 284.585 104 286.531 105.696C287.159 105.964 287.858 106.011 288.517 105.833C289.175 105.654 289.754 105.258 290.16 104.71Z" fill="#FAD6BE"/>
</g>
<g style="mix-blend-mode:multiply">
<path d="M340.927 131.348C340.672 130.506 340.333 129.691 339.915 128.916C337.477 126.118 334.774 123.564 331.842 121.29C327.292 117.648 321.941 117.346 316.379 118.45C316.228 118.471 316.073 118.449 315.934 118.385C315.795 118.321 315.677 118.219 315.594 118.091C315.511 117.962 315.467 117.812 315.466 117.66C315.466 117.507 315.509 117.357 315.59 117.227C315.682 117.056 315.774 116.872 315.853 116.688C315.261 116.734 314.684 116.899 314.157 117.175C313.594 117.571 313.062 118.011 312.566 118.49C311.396 119.804 310.489 121.527 309.397 122.802C308.885 123.407 308.319 124.117 307.438 123.972C307.022 123.939 306.605 123.939 306.189 123.972C306.502 124.676 306.986 125.29 307.596 125.76C307.95 126.097 308.323 126.413 308.714 126.707C310.23 126.977 311.793 126.722 313.145 125.984C315.126 125.83 317.116 125.808 319.101 125.918C322.23 126.142 325.083 127.233 328.121 127.798C328.265 127.798 328.594 127.548 328.371 127.47C325.118 126.068 321.742 124.972 318.286 124.196C325.925 122.815 334.564 126.825 340.06 131.887C340.375 132.137 341.033 131.756 340.927 131.348Z" fill="#FAD6BE"/>
</g>
<path d="M338.376 128.337C335.582 125.236 332.441 122.465 329.014 120.08C326.043 117.451 314.301 119.449 313.736 119.725C314.306 119.028 314.803 118.275 315.221 117.477C312.779 119.08 310.686 121.159 309.068 123.591C309.213 123.933 309.673 124.064 310.251 123.749L310.501 123.63C310.023 124.297 309.621 125.016 309.305 125.773C310.499 124.82 311.828 124.049 313.249 123.486H313.315L313.788 123.302L314.406 123.091C317.506 122.112 320.785 121.838 324.005 122.289C329.935 123.144 334.523 126.431 339.191 130.047C338.915 129.415 338.652 128.85 338.376 128.337Z" fill="#81400F"/>
<path d="M338.889 128.666C332.578 122.092 321.559 119.186 313.065 122.815L309.765 124.064C309.246 124.249 308.692 124.316 308.143 124.259C307.595 124.202 307.067 124.023 306.596 123.736C307.057 124.787 308.463 126.05 309.634 125.668C309.795 125.72 309.967 125.735 310.135 125.712C310.303 125.69 310.464 125.63 310.607 125.537C319.521 119.489 330.198 123.972 338.31 129.166C338.573 129.297 339.139 128.929 338.889 128.666Z" fill="#4C2501"/>
<g style="mix-blend-mode:multiply">
<path d="M251.952 102.936C252.68 102.447 253.455 102.033 254.266 101.7C257.89 101.109 261.562 100.867 265.232 100.977C271.004 101.056 275.303 104.185 278.84 108.55C278.944 108.661 279.078 108.74 279.225 108.778C279.373 108.816 279.528 108.811 279.672 108.764C279.817 108.717 279.946 108.63 280.043 108.513C280.14 108.396 280.202 108.254 280.221 108.103C280.221 107.919 280.313 107.722 280.352 107.538C280.783 107.939 281.124 108.428 281.352 108.971C281.536 109.621 281.668 110.285 281.746 110.956C281.838 112.705 281.431 114.585 281.457 116.215C281.457 117.004 281.457 117.859 282.219 118.345C282.556 118.582 282.877 118.841 283.179 119.121C282.498 119.459 281.744 119.626 280.984 119.607C280.497 119.607 280.011 119.607 279.524 119.607C278.196 118.853 277.162 117.671 276.592 116.255C275.169 114.896 273.663 113.627 272.082 112.455C269.557 110.654 266.691 109.681 264.009 108.208C263.877 108.129 263.798 107.722 264.009 107.801C267.385 108.814 270.66 110.139 273.791 111.758C268.821 105.894 259.683 103.527 252.294 103.869C251.886 103.869 251.61 103.172 251.952 102.936Z" fill="#FAD6BE"/>
</g>
<path d="M255.791 102.226C259.886 101.62 264.037 101.483 268.164 101.818C272.108 101.739 279.813 110.627 280.063 111.18C280.068 110.295 280.165 109.414 280.352 108.55C281.209 111.308 281.5 114.21 281.207 117.083C280.878 117.254 280.444 117.083 280.208 116.452L280.089 116.215C280.046 117.025 279.895 117.825 279.642 118.595C279.33 117.123 278.803 115.706 278.078 114.388L277.828 113.954C277.709 113.77 277.617 113.586 277.499 113.402C275.741 110.705 273.406 108.432 270.662 106.749C265.586 103.659 259.972 103.238 254.16 103.094L255.791 102.226Z" fill="#81400F"/>
<path d="M255.199 102.16C264.166 101.121 274.422 105.841 278.63 113.993L280.352 117.017C280.636 117.483 281.019 117.881 281.473 118.183C281.927 118.485 282.442 118.684 282.982 118.766C281.97 119.265 280.089 119.344 279.445 118.319C279.287 118.255 279.145 118.157 279.029 118.032C278.913 117.907 278.826 117.758 278.774 117.596C275.79 107.353 264.784 104.053 255.318 102.909C255.081 102.844 254.844 102.199 255.199 102.16Z" fill="#4C2501"/>
<g style="mix-blend-mode:multiply">
<path d="M267.676 201.598C267.676 201.598 274.592 209.487 284.454 206.712C284.454 206.712 281.101 210.657 274.671 208.724C268.242 206.791 267.676 201.598 267.676 201.598Z" fill="#FAD6BE"/>
</g>
<path d="M312.579 180.745C312.498 180.722 312.413 180.715 312.329 180.727C312.245 180.738 312.165 180.767 312.093 180.811C309.279 179.607 306.355 178.678 303.362 178.037C297.879 176.617 292.41 175.197 286.993 173.553C277.157 170.595 266.77 167.321 258.066 161.72C257.79 161.549 257.343 161.839 257.251 162.102C256.62 163.969 257.882 165.336 259.065 166.69C261.616 169.596 259.893 175.236 259.591 178.734C259.289 182.231 258.723 190.804 261.721 194.275C265.942 206.476 281.654 210.276 293.593 206.344C299.753 204.278 305.038 200.197 308.595 194.761C309.439 193.396 310.148 191.951 310.712 190.449C311.699 187.99 313.211 186.373 314.525 184.177C315.564 182.52 313.934 181.442 312.579 180.745Z" fill="#EE7964"/>
<g style="mix-blend-mode:screen">
<path d="M283.193 172.896C275.093 170.411 266.007 167.452 258.842 162.851C258.736 162.851 258.487 162.943 258.592 163.061C260.972 165.691 265.297 167.229 268.519 168.609C273.16 170.651 278.01 172.181 282.982 173.172C283.114 173.198 283.39 172.948 283.193 172.896Z" fill="#EE7964"/>
</g>
<g style="mix-blend-mode:multiply">
<path d="M315.919 183.796C315.694 182.873 315.245 182.019 314.612 181.31C313.979 180.602 313.182 180.06 312.29 179.733C312.29 179.733 311.067 179.523 311.067 179.536C311.251 180.18 311.737 180.851 311.198 180.68C309.213 180.129 307.198 179.69 305.163 179.365C304.256 179.26 303.349 179.154 302.468 178.984L301.153 178.707C299.089 178.392 297.051 178.103 295.052 177.748C290.687 176.985 286.295 176.222 281.982 175.197C273.541 173.198 265.218 170.451 258.157 165.336C258.647 165.898 259.054 166.527 259.367 167.203C259.947 168.641 260.315 170.156 260.458 171.7C260.761 174.987 260.682 178.274 260.879 181.587C260.945 182.533 261.011 183.48 261.103 184.427C261.195 185.373 261.51 186.083 261.786 186.925C262.923 190.505 264.846 193.786 267.414 196.528C269.983 199.269 273.132 201.401 276.631 202.768C282.89 205.253 290.2 204.793 296.446 202.597C300.088 201.283 302.363 198.101 305.032 195.537C306.749 193.871 308.378 192.116 309.91 190.278C310.817 189.186 313.302 184.098 315.669 187.53C315.718 187.585 315.782 187.626 315.853 187.648C316.1 186.378 316.122 185.074 315.919 183.796Z" fill="#FAD6BE"/>
</g>
<path d="M311.777 179.865C312.067 180.404 312.401 180.919 312.776 181.403C312.905 181.594 313.024 181.791 313.131 181.995C310.502 181.745 307.872 181.456 305.242 181.035C303.809 180.851 302.363 180.627 300.916 180.364L298.353 179.773C290.647 178.118 283.068 175.921 275.671 173.199C272.871 172.186 260.524 168.702 257.987 164.758C258.067 165.529 258.363 166.263 258.841 166.874C259.157 167.269 259.459 167.676 259.735 168.097C260.245 169.255 260.522 170.501 260.551 171.765C260.616 173.383 260.695 175 260.8 176.63C260.985 177.537 261.182 178.445 261.379 179.352C261.629 180.561 261.865 181.771 262.115 182.981C262.331 184.435 262.634 185.875 263.023 187.293C263.709 189.689 264.867 191.924 266.428 193.867L266.533 194.025C269.474 197.509 273.291 200.146 277.591 201.664C294.881 208.238 306.215 193.644 314.052 183.691C314.397 184.524 315.026 185.209 315.827 185.623C315.222 183.257 314.341 181.074 311.777 179.865Z" fill="#C4464A"/>
<g style="mix-blend-mode:multiply">
<path d="M296.866 199.126C288.872 203.846 278.656 202.886 270.569 196.496C268.365 194.734 266.601 192.484 265.415 189.922C264.272 186.433 263.449 182.846 262.956 179.207C262.956 178.549 262.891 177.892 262.891 177.261C262.891 174.855 263.022 171.883 261.799 169.504C265.751 171.255 269.819 172.731 273.975 173.921C283.331 177.245 292.944 179.795 302.717 181.547C304.111 181.889 305.505 182.205 306.899 182.494C308.96 183.028 311.08 183.306 313.21 183.322C308.2 189.002 303.848 195.011 296.866 199.126Z" fill="#8C0C00"/>
</g>
<path d="M284.349 188.266C281.419 187.165 278.419 186.26 275.368 185.557C273.615 185.127 271.83 184.837 270.03 184.69C268.03 184.546 266.027 184.926 264.219 185.794C264.538 187.168 264.929 188.524 265.389 189.857C266.574 192.418 268.339 194.668 270.543 196.431C278.656 202.86 288.872 203.82 296.84 199.06C297.677 198.563 298.489 198.023 299.272 197.443C297.405 193.039 288.07 189.633 284.349 188.266Z" fill="#FF7858"/>
<path d="M295.341 199.034C288.062 198.376 280.977 196.323 274.474 192.986C271.303 191.389 268.303 189.472 265.52 187.267C265.219 187.261 264.92 187.315 264.639 187.425C264.863 188.24 265.1 189.055 265.389 189.857C266.574 192.418 268.339 194.669 270.543 196.431C278.314 202.61 287.952 203.794 295.841 199.678C295.712 199.619 295.599 199.53 295.512 199.418C295.425 199.305 295.366 199.174 295.341 199.034Z" fill="white"/>
<g style="mix-blend-mode:multiply" opacity="0.6">
<path d="M295.342 199.034C294.342 198.942 293.356 198.811 292.357 198.666C286.9 203.846 276.855 200.625 270.005 196.036C270.189 196.194 270.346 196.365 270.544 196.523C278.314 202.61 287.952 203.794 295.841 199.678C295.712 199.619 295.6 199.53 295.513 199.418C295.426 199.305 295.367 199.174 295.342 199.034Z" fill="#B8A997"/>
</g>
<path d="M309.555 184.69C310.136 184.214 310.694 183.71 311.225 183.178C309.761 183.007 308.309 182.757 306.872 182.429C305.479 182.139 304.085 181.824 302.691 181.482C292.918 179.73 283.305 177.18 273.949 173.856C270.41 172.818 266.925 171.603 263.509 170.214C264.511 172.746 265.861 175.127 267.519 177.288C272.431 180.519 277.786 183.021 283.416 184.716C291.311 187.067 299.651 187.518 307.753 186.031C308.371 185.584 308.989 185.15 309.555 184.69Z" fill="white"/>
<g style="mix-blend-mode:multiply" opacity="0.6">
<path d="M306.872 182.429C305.479 182.139 304.085 181.824 302.691 181.482C292.918 179.73 283.305 177.18 273.949 173.856C270.41 172.818 266.925 171.603 263.509 170.214C263.957 171.309 264.462 172.38 265.021 173.422C265.104 173.283 265.224 173.17 265.368 173.095C265.512 173.021 265.674 172.988 265.836 173.001C269.11 173.37 272.095 174.724 275.224 175.631C279.445 176.88 283.718 177.893 287.991 178.918C291.771 179.978 295.608 180.826 299.483 181.456C302.081 181.66 304.635 182.236 307.07 183.165C307.27 183.252 307.43 183.412 307.517 183.611C307.605 183.811 307.614 184.037 307.543 184.243C307.32 184.9 307.057 185.558 306.78 186.136C307.109 186.136 307.438 186.044 307.753 185.979C308.371 185.571 308.976 185.137 309.555 184.664C310.136 184.188 310.694 183.683 311.225 183.152C309.762 182.989 308.309 182.748 306.872 182.429Z" fill="#B8A997"/>
</g>
<g style="mix-blend-mode:screen">
<path d="M274.803 187.477C274.803 186.557 273.409 186.162 272.726 185.86C271.788 185.485 270.77 185.354 269.767 185.479C269.522 185.539 269.295 185.661 269.11 185.834C269.026 185.867 268.946 185.911 268.873 185.965C267.44 187.056 270.043 188.161 270.846 188.437C271.858 188.792 274.882 189.331 274.803 187.477Z" fill="#EF7874"/>
</g>
<g style="mix-blend-mode:screen">
<path d="M274.684 190.12C274.198 189.923 273.225 190.685 273.856 190.935C274.487 191.185 275.302 190.357 274.684 190.12Z" fill="#EF7874"/>
</g>
<g style="mix-blend-mode:screen">
<path d="M279.011 204.675C275.908 203.018 272.792 201.69 269.807 199.771C269.597 199.639 269.084 199.771 269.215 200.126C270.072 201.84 271.423 203.258 273.095 204.195C274.766 205.133 276.681 205.547 278.59 205.385C278.866 205.359 279.484 204.925 279.011 204.675Z" fill="#EE7964"/>
</g>
<path d="M237.566 450.279C247.691 444.862 253.975 417.567 227.744 376.782C201.513 335.997 149.511 302.128 108.29 264.091C99.7306 256.202 38.6033 226.908 76.9311 282.274C115.259 337.641 144.501 393.611 172.757 417.948C201.013 442.285 227.468 455.709 237.566 450.279Z" fill="#FFE7D2"/>
<path d="M90.5539 302.495L56.4862 283.97L57.6827 264.524L88.253 259.712L90.5539 302.495Z" fill="#FFE7D2"/>
<path d="M102.821 270.033L113.59 278.014L59.2865 283.115L90.5536 268.469L102.821 270.033Z" fill="#FFDDC2"/>
<path d="M10.6371 194.379L2.4324 189.225C1.3862 188.619 0.605683 187.642 0.245315 186.488C-0.115053 185.334 -0.0290082 184.087 0.48642 182.993C1.09013 181.948 2.06458 181.168 3.21654 180.807C4.3685 180.447 5.61385 180.533 6.70565 181.047L15.6203 184.847C19.3019 186.412 21.3662 190.185 19.841 193.117C18.3026 196.036 14.0162 196.496 10.6371 194.379Z" fill="#E86464"/>
<path d="M244.285 441.444C242.681 445.835 240.262 448.846 237.566 450.292C227.442 455.709 201 442.298 172.744 417.948C155.086 402.723 137.007 375.139 116.587 343.005C136.888 363.095 166.551 391.495 185.735 405.208C200.448 415.792 223.721 429.676 244.285 441.444Z" fill="#FFDDC2"/>
<path d="M24.745 187.648C24.745 187.648 7.78346 178.563 5.52192 186.465C3.26038 194.366 23.8509 202.15 23.8509 202.15L24.745 187.648Z" fill="#FFE7D2"/>
<path d="M109.751 267.785L53.4356 284.878C51.9326 285.332 50.3106 285.173 48.9253 284.433C47.54 283.694 46.5045 282.435 46.0461 280.933L2.53779 139.474C2.31075 138.73 2.23271 137.948 2.30815 137.174C2.38358 136.4 2.61101 135.648 2.9774 134.961C3.34379 134.275 3.84196 133.668 4.44338 133.174C5.04481 132.681 5.73768 132.31 6.48233 132.085L62.7973 114.993C64.3003 114.538 65.9223 114.697 67.3076 115.437C68.6929 116.176 69.7283 117.435 70.1867 118.937L113.695 260.409C114.146 261.91 113.984 263.529 113.245 264.911C112.506 266.293 111.249 267.327 109.751 267.785Z" fill="#2B4403"/>
<path d="M105.425 262.105L53.8168 277.777C53.1357 277.988 52.4197 278.061 51.7101 277.993C51.0006 277.924 50.3116 277.716 49.6831 277.38C49.0546 277.044 48.499 276.586 48.0485 276.034C47.598 275.481 47.2615 274.845 47.0585 274.162L6.42969 142.682C6.01549 141.304 6.16329 139.819 6.8408 138.55C7.51832 137.282 8.67047 136.333 10.0455 135.911L61.6533 120.212C63.0237 119.814 64.4957 119.969 65.7523 120.646C67.009 121.322 67.9498 122.465 68.3722 123.828L108.988 255.307C109.416 256.681 109.281 258.169 108.613 259.444C107.945 260.718 106.798 261.675 105.425 262.105Z" fill="#88D20F"/>
<path d="M12.4774 222.74L32.3185 235.809L28.3213 222.622L12.4774 222.74Z" fill="#F0D4BD"/>
<path d="M23.8901 246.078L39.2213 258.489L35.7238 246.998L23.8901 246.078Z" fill="#F0D4BD"/>
<path d="M30.0573 265.879L44.6915 276.515L41.6805 266.589L30.0573 265.879Z" fill="#F0D4BD"/>
<path d="M130.616 283.642C129.112 280.597 128.303 277.256 128.25 273.86C128.473 262.276 131.392 243.961 131.589 240.727C131.879 236.085 131.589 233.035 129.039 228.828C127.947 227.04 118.191 207.186 112.695 201.704C110.684 199.561 108.123 198.01 105.292 197.22C102.15 196.3 91.3945 196.852 83.1109 194.59C75.0904 192.421 76.4447 200.06 79.0218 203.794C82.7033 209.053 99.7043 214.93 99.7043 214.93C99.7043 214.93 108.08 242.633 109.395 246.262C113.011 256.307 100.861 261.645 97.0352 271.69C94.9577 277.16 101.308 279.881 105.516 281.144C109.723 282.406 130.616 283.642 130.616 283.642Z" fill="#FFE7D2"/>
<path d="M131.59 240.739C131.392 243.96 128.473 262.276 128.25 273.859C128.303 277.255 129.112 280.596 130.617 283.641H130.248C128.275 283.415 126.395 282.678 124.794 281.501C123.194 280.325 121.928 278.751 121.123 276.936C118.073 270.362 128.842 250.732 128.842 242.541C128.842 236.847 123.109 220.873 119.638 211.616C124.069 219.085 128.368 227.71 129.065 228.853C131.603 233.035 131.879 236.085 131.59 240.739Z" fill="#FFDDC2"/>
<path d="M32.0502 215L16.9524 209.778C13.37 208.539 9.46145 210.439 8.22234 214.021C6.98324 217.603 8.88283 221.512 12.4652 222.751L27.563 227.973C31.1453 229.212 35.0539 227.312 36.293 223.73C37.5321 220.148 35.6325 216.239 32.0502 215Z" fill="#FFE7D2"/>
<path d="M35.356 225.528C34.7216 226.402 33.8894 227.114 32.9273 227.605C31.9653 228.096 30.9007 228.353 29.8205 228.354C29.0554 228.349 28.2961 228.221 27.5721 227.973L12.4776 222.714C10.8631 222.154 9.51484 221.013 8.69568 219.513C7.87652 218.014 7.64513 216.263 8.04661 214.602C10.4483 217.684 13.7685 219.922 17.5267 220.991L35.356 225.528Z" fill="#FFDDC2"/>
<path d="M34.5671 228.617L25.1397 225.843C21.6027 224.804 19.4595 221.386 20.5377 218.27C21.6159 215.154 25.4158 213.799 28.8344 215.167L37.9594 218.809C39.2331 219.288 40.2759 220.235 40.8746 221.457C41.4734 222.679 41.5829 224.083 41.1808 225.383C40.7017 226.666 39.7489 227.716 38.5186 228.318C37.2883 228.92 35.874 229.027 34.5671 228.617Z" fill="#EE7964"/>
<g opacity="0.25">
<path opacity="0.25" d="M72.7593 137.903L45.1581 146.733L45.3824 147.434L72.9837 138.604L72.7593 137.903Z" fill="white"/>
<path opacity="0.25" d="M73.6456 140.727L50.3036 148.198L50.5281 148.899L73.8701 141.428L73.6456 140.727Z" fill="white"/>
<path opacity="0.25" d="M72.3484 144.236L43.4463 153.487L43.6708 154.189L72.5728 144.937L72.3484 144.236Z" fill="white"/>
</g>
<g opacity="0.25">
<path opacity="0.25" d="M59.0619 247.771L40.7163 253.643L40.9408 254.344L59.2863 248.472L59.0619 247.771Z" fill="white"/>
<path opacity="0.25" d="M64.2257 246.118L61.4081 247.02L61.6326 247.722L64.4501 246.82L64.2257 246.118Z" fill="white"/>
<path opacity="0.25" d="M74.0714 246.073L41.5879 256.47L41.8124 257.172L74.2959 246.774L74.0714 246.073Z" fill="white"/>
<path opacity="0.25" d="M55.2388 255.204L42.4658 259.292L42.6903 259.994L55.4633 255.905L55.2388 255.204Z" fill="white"/>
</g>
<path d="M46.0968 259.531L33.7328 255.255C30.7956 254.239 27.5918 255.794 26.577 258.727C25.5622 261.661 27.1207 264.863 30.058 265.879L42.422 270.155C45.3592 271.171 48.563 269.617 49.5778 266.683C50.5926 263.749 49.0341 260.547 46.0968 259.531Z" fill="#FFE7D2"/>
<path d="M49.2938 267.338C48.6876 268.562 47.657 269.523 46.3942 270.043C45.1314 270.564 43.7226 270.607 42.4303 270.165L30.0576 265.879C28.7942 265.453 27.7227 264.594 27.034 263.452C26.3454 262.311 26.0842 260.962 26.2971 259.646C28.8938 262.16 32.0473 264.025 35.501 265.09C40.0568 266.076 44.6605 266.827 49.2938 267.338Z" fill="#FFDDC2"/>
<path d="M49.5523 261.577L43.5629 259.505C41.0511 258.637 38.3106 259.968 37.4418 262.48L37.4375 262.493C36.5687 265.004 37.9006 267.745 40.4124 268.613L46.4018 270.685C48.9136 271.554 51.654 270.222 52.5228 267.71L52.5271 267.698C53.3959 265.186 52.064 262.446 49.5523 261.577Z" fill="#EE7964"/>
<path d="M43.4802 238.319L28.3824 233.098C24.8001 231.858 20.8915 233.758 19.6524 237.34C18.4133 240.922 20.3129 244.831 23.8953 246.07L38.993 251.292C42.5754 252.531 46.484 250.631 47.7231 247.049C48.9622 243.467 47.0626 239.559 43.4802 238.319Z" fill="#FFE7D2"/>
<path d="M47.0447 248.497C46.2222 249.81 44.9781 250.805 43.516 251.319C42.054 251.832 40.4609 251.834 38.9978 251.324L23.8902 246.064C22.5889 245.619 21.4527 244.791 20.6313 243.688C19.8099 242.585 19.3417 241.259 19.2882 239.885C22.1747 242.569 25.7085 244.458 29.544 245.367L47.0447 248.497Z" fill="#FFDDC2"/>
<path d="M46.5847 252.244L37.1572 249.483C33.6203 248.444 31.4508 245.026 32.529 241.91C33.6071 238.781 37.4202 237.44 40.8519 238.807L49.9638 242.462C51.2448 242.93 52.294 243.877 52.8901 245.103C53.4862 246.33 53.5826 247.74 53.1589 249.036C52.6937 250.319 51.7478 251.372 50.5209 251.97C49.2941 252.569 47.8826 252.667 46.5847 252.244Z" fill="#EE7964"/>
<path d="M93.9725 196.247C93.9725 196.247 95.4188 199.284 94.6562 199.942C93.8936 200.599 90.4881 200.993 88.529 200.796C86.5699 200.599 73.4214 195.169 73.0401 194.222C72.6588 193.275 74.276 192.552 76.0116 192.907L93.9725 196.247Z" fill="#EE7964"/>
<path d="M120.322 290.005C120.322 290.005 118.1 296.868 113.958 298.867C109.816 300.865 99.1266 302.496 99.1266 302.496C99.1266 302.496 112.538 304.994 118.376 311.699C117.889 303.403 120.322 290.005 120.322 290.005Z" fill="#FFDDC2"/>
<path d="M99.7043 214.89C102.532 212.614 104.958 209.881 106.883 206.804C106.017 212.034 104.294 217.085 101.782 221.753L99.7043 214.89Z" fill="#FFDDC2"/>
<path d="M200.291 698C200.291 698 204.748 627.987 200.291 590.949C195.833 553.911 184.775 496.178 184.775 496.178C184.775 496.178 140.36 466.28 145.948 433.213C155.388 377.189 180.449 364.33 219.579 308.307C235.752 285.153 260.484 269.533 260.484 269.533C260.484 269.533 223.261 329.33 255.001 337.995C286.742 346.659 310.961 297.749 330.434 278.5C348.237 260.908 372.799 246.393 376.875 244.039C377.046 243.931 377.244 243.873 377.447 243.873C377.649 243.873 377.848 243.931 378.019 244.039L379.899 245.354C392.981 254.324 405.606 263.943 417.727 274.175C420.725 276.804 428.811 286.757 432.414 292.779C440.868 306.887 465.285 365.29 465.285 400.75C465.285 436.21 420.751 509.155 421.593 552.675C422.434 596.195 461.156 696.106 461.156 696.106L200.291 698Z" fill="#88D20F"/>
<path d="M382.832 247.393C376.441 251.219 354.286 264.656 346.831 271.808C338.1 280.197 330.435 286.048 315.801 306.953C290.687 342.86 269.229 347.133 254.897 344.701C247.468 343.386 237.725 335.09 237.725 320.417C237.725 306.243 248.507 284.786 254.502 273.938C258 271.309 260.248 269.705 260.472 269.56C259.788 270.678 223.564 329.423 255.002 338.009C286.742 346.673 310.962 297.763 330.435 278.514C348.238 260.922 372.799 246.407 376.875 244.053C377.046 243.944 377.245 243.886 377.447 243.886C377.65 243.886 377.848 243.944 378.019 244.053L379.899 245.368L382.832 247.393Z" fill="#78BD08"/>
<path d="M346.186 395.071C346.186 395.071 249.61 438.091 263.508 548.902C274.158 633.943 255.093 696.054 255.093 696.054H325.043L428.548 607.095L346.186 395.071Z" fill="#83CC0C"/>
<path d="M184.776 496.179C184.776 496.179 231.072 514.678 245.259 518.793C259.446 522.909 308.898 526.09 308.898 526.09C308.898 526.09 269.137 537.49 252.07 534.268C235.003 531.047 184.776 496.179 184.776 496.179Z" fill="#7CB342"/>
<path d="M478 433.568C478 433.568 449.862 464.176 425.275 472.236C400.687 480.296 348.435 478.008 348.435 478.008C348.435 478.008 351.183 458.01 368.854 438.051C386.526 418.092 440.698 415.239 456.436 417.238C472.175 419.236 478 433.568 478 433.568Z" fill="#6C9C39"/>
<path d="M346.186 395.071C346.186 395.071 375.113 556.659 368.973 573.173C362.832 589.687 255.081 696.107 255.081 696.107H325.03L428.535 607.148L346.186 395.071Z" fill="#78C200"/>
<path d="M353.694 451.344C353.694 451.344 381.227 555.37 389.432 579.734C348.027 610.04 316.774 651.509 278.367 696.106H340.638C383.542 671.862 444.064 636.362 459.001 619.27C473.937 602.177 472.846 580.299 473.819 569.873C474.871 558.447 467.613 429.768 467.613 429.768C467.613 429.768 451.059 420.446 416.991 425.626C382.924 430.807 353.694 451.344 353.694 451.344Z" fill="#FFE7D2"/>
<path d="M420.212 561.8C420.212 561.8 401.949 571.516 389.405 579.747C388.55 577.196 387.472 573.778 386.249 569.689C395.835 565.823 420.212 561.8 420.212 561.8Z" fill="#FFDDC2"/>
<path d="M473.805 569.86C472.845 580.299 473.937 602.164 459 619.257C450.611 628.842 426.129 645.25 398.596 662.093C414.229 646.947 437.962 622.386 453.517 598.891C468.914 575.658 468.388 468.187 468.967 454.486C469.059 491.117 474.66 561.419 473.805 569.86Z" fill="#FFDDC2"/>
<path d="M468.086 438.104C456.252 437.394 437.963 437.525 412.797 445.598C387.367 453.763 369.617 472.236 361.794 481.768C357.034 464.124 353.694 451.357 353.694 451.357C353.694 451.357 382.95 430.793 417.017 425.613C451.085 420.433 467.652 429.755 467.652 429.755C467.652 429.755 468.086 434.383 468.086 438.104Z" fill="#F0D4BD"/>
<path d="M348.434 478.008L332.459 357.493C329.5 335.142 343.162 290.794 379.136 286.034C415.11 281.274 440.316 306.124 449.941 328.87C457.935 347.79 478 433.568 478 433.568C478 433.568 450.256 431.188 416.057 442.219C381.858 453.25 348.434 478.008 348.434 478.008Z" fill="#7CB342"/>
<path d="M351.984 42.0735C351.235 39.2204 350.38 36.3936 349.355 33.6194C348.472 30.8521 347.281 28.1928 345.805 25.6911C344.052 23.3566 341.945 21.3113 339.559 19.6299C337.21 17.8745 334.736 16.2926 332.156 14.8966C327.083 11.9977 321.506 10.0881 315.721 9.26929C309.888 8.52973 304.005 8.25714 298.128 8.45412V8.32264C304.017 7.47449 309.987 7.35526 315.905 7.96764C318.9 8.27972 321.84 8.98709 324.649 10.0713C327.426 11.1829 330.116 12.5014 332.696 14.0157C335.279 15.4977 337.753 17.163 340.098 18.9988C342.513 20.7786 344.63 22.9311 346.37 25.3756C347.802 27.9604 348.936 30.6996 349.749 33.5405C350.626 36.3629 351.406 39.216 352.09 42.0998L351.984 42.0735Z" fill="#6B3C02"/>
<path d="M359.19 21.9705C362.042 24.4761 364.751 27.1406 367.303 29.9513C368.698 31.3376 369.783 33.0048 370.485 34.8423C371.154 36.6835 371.375 38.6576 371.129 40.6011H370.998C370.597 38.7942 370.016 37.0322 369.262 35.342C368.555 33.6613 367.626 32.0827 366.501 30.6481C365.344 29.1624 364.121 27.7161 362.885 26.3093C361.649 24.9025 360.387 23.4562 359.098 22.0756L359.19 21.9705Z" fill="#6B3C02"/>
<path d="M389.037 69.6843C392.783 73.0968 396.347 76.7044 399.713 80.492C403.053 84.2654 406.209 88.223 409.167 92.3251C412.138 96.4295 414.776 100.765 417.056 105.289C419.251 109.861 420.885 114.682 421.921 119.647H421.79C420.144 114.912 418.166 110.299 415.873 105.841C413.506 101.437 411.061 97.0584 408.26 92.8905C405.459 88.7226 402.396 84.7256 399.174 80.8733C395.966 76.9939 392.551 73.2896 388.945 69.7764L389.037 69.6843Z" fill="#6B3C02"/>
<path d="M407.682 201.94C404.015 207.613 399.942 213.014 395.494 218.098C393.302 220.687 390.924 223.112 388.38 225.356C385.799 227.574 382.945 229.452 379.886 230.944L379.821 230.826C382.494 228.813 385.058 226.658 387.499 224.37C389.945 222.109 392.377 219.808 394.718 217.388C397.058 214.969 399.228 212.418 401.371 209.828C403.514 207.238 405.605 204.569 407.577 201.874L407.682 201.94Z" fill="#5C3302"/>
<path d="M393.784 153.069C397.439 155.961 400.924 159.051 404.303 162.272C407.694 165.481 410.919 168.86 413.967 172.396C417.109 175.877 419.905 179.655 422.316 183.677C424.767 187.721 426.464 192.176 427.326 196.825H427.194C425.722 192.446 423.708 188.267 421.199 184.387C418.759 180.458 416.076 176.686 413.165 173.093C410.232 169.499 407.121 166.054 403.843 162.772C400.582 159.459 397.268 156.198 393.679 153.227L393.784 153.069Z" fill="#6B3C02"/>
<path d="M452.57 177.366C452.057 182.52 451.255 187.648 450.322 192.736C449.388 197.825 448.179 202.9 446.759 207.896C445.402 212.92 443.666 217.834 441.565 222.596C439.407 227.345 436.65 231.799 433.36 235.849L433.255 235.77C435.983 231.4 438.358 226.818 440.355 222.07C442.363 217.336 444.16 212.515 445.746 207.607C447.298 202.676 448.56 197.667 449.691 192.618C450.821 187.569 451.768 182.494 452.452 177.366H452.57Z" fill="#6B3C02"/>
<path d="M266.072 31.3449C264.445 34.3088 263.031 37.3844 261.839 40.5485C260.596 43.6766 259.516 46.8671 258.604 50.1071C257.723 53.3546 257 56.6811 256.29 59.9023C255.58 63.1236 254.975 66.4763 254.186 69.8027H254.055C254.088 66.4033 254.404 63.0125 255.001 59.6656C255.639 56.3195 256.518 53.024 257.631 49.8047C258.68 46.5771 259.892 43.4044 261.26 40.2987C262.635 37.2002 264.221 34.1998 266.007 31.3186L266.072 31.3449Z" fill="#6B3C02"/>
<path d="M443.998 140.552C445.028 144.151 445.771 147.827 446.22 151.544C446.511 153.401 446.651 155.278 446.64 157.158C446.61 159.049 446.354 160.929 445.878 162.759H445.733C445.497 160.879 445.444 159.038 445.312 157.197C445.181 155.357 445.312 153.503 445.155 151.662C444.933 147.954 444.494 144.262 443.84 140.605L443.998 140.552Z" fill="#6B3C02"/>
<path d="M63.639 180.666C61.9297 180.666 61.5352 180.495 61.4169 179.851C61.3891 179.631 61.4455 179.409 61.5747 179.228C61.7039 179.048 61.8964 178.923 62.1137 178.878C62.6528 178.694 63.0736 178.983 63.2839 179.654L66.479 178.615C66.0451 176.814 64.6382 175.802 61.8508 176.722C59.0633 177.642 57.8536 179.641 58.1034 181.442C58.3533 183.243 59.4183 183.427 61.1407 183.506C62.8632 183.585 63.4154 183.809 63.5206 184.387C63.6258 184.966 63.2445 185.387 62.6134 185.597C62.4544 185.67 62.2805 185.706 62.1055 185.7C61.9305 185.695 61.7591 185.649 61.6049 185.566C61.4506 185.483 61.3177 185.366 61.2166 185.223C61.1156 185.08 61.0491 184.915 61.0224 184.742L57.801 185.794C58.3138 188.042 60.1678 188.516 62.8369 187.648C65.506 186.78 67.2548 185.018 66.8735 182.915C66.5974 181.35 65.6638 180.732 63.639 180.666Z" fill="white"/>
<path d="M70.8708 181.442C70.8058 181.047 70.7794 180.646 70.7919 180.246V176.301L72.8957 175.604V173.369L70.7919 174.053V171.292L67.5179 172.357L67.5968 181.823C67.5817 182.523 67.6257 183.222 67.7283 183.914C67.965 185.229 68.7933 185.636 70.7656 184.992C71.5389 184.742 72.2837 184.412 72.9877 184.006V181.744C71.6334 182.375 71.0023 182.349 70.8708 181.442Z" fill="white"/>
<path d="M53.7771 179.562V180.522C53.3516 180.25 52.8686 180.081 52.3665 180.029C51.8644 179.976 51.3569 180.041 50.8844 180.219C47.0582 181.455 45.7302 185.281 46.335 188.739C46.8084 191.369 48.452 192.289 50.8581 191.5C52.1286 191.123 53.2149 190.289 53.9086 189.16V190.238L57.1694 189.173L57.0774 178.497L53.7771 179.562ZM53.7771 184.571V185.031C53.7771 187.24 52.9224 188.358 51.7259 188.752C50.5294 189.147 49.9246 188.621 49.6485 187.069C49.2935 185.058 50.0692 182.915 51.5813 182.415C53.0934 181.915 53.8034 183.138 53.8297 184.571H53.7771Z" fill="white"/>
<path d="M45.6783 182.336L45.8361 179.089L28.8483 184.637H43.2327C43.5446 184.648 43.8555 184.597 44.1476 184.486C44.4396 184.376 44.707 184.21 44.9343 183.996C45.1616 183.782 45.3443 183.525 45.472 183.24C45.5997 182.956 45.6698 182.648 45.6783 182.336Z" fill="white"/>
<path d="M31.1754 189.988L42.9039 190.462C43.1886 190.472 43.4726 190.426 43.7392 190.325C44.0058 190.225 44.2497 190.072 44.4566 189.876C44.6635 189.68 44.8292 189.445 44.9442 189.184C45.0591 188.924 45.1209 188.643 45.126 188.358L45.2837 185.386L31.1754 189.988Z" fill="white"/>
<path d="M38.3936 195.09C38.5977 195.131 38.8082 195.129 39.0116 195.084C39.2149 195.039 39.4065 194.952 39.5739 194.828C39.7413 194.704 39.8807 194.546 39.9832 194.365C40.0856 194.183 40.1488 193.982 40.1686 193.775L40.2869 191.737L34.186 193.696L38.3936 195.09Z" fill="white"/>
<path d="M478 433.568C478 433.568 450.257 431.201 416.058 442.219C398.768 447.794 381.661 456.879 368.973 464.571C379.137 453.868 397.295 437.998 420.094 431.937C455.871 422.418 459.211 422.063 459.211 422.063C459.211 422.063 451.598 339.717 430.902 302.417C439.094 309.781 445.586 318.839 449.928 328.962C457.936 347.803 478 433.568 478 433.568Z" fill="#70A834"/>
</svg>
